<?xml version="1.0" encoding="utf-8"?>
<!-- Generator: Adobe Illustrator 22.1.0, SVG Export Plug-In . SVG Version: 6.00 Build 0)  -->
<svg version="1.1" id="Layer_1" xmlns="http://www.w3.org/2000/svg" xmlns:xlink="http://www.w3.org/1999/xlink" x="0px" y="0px"
	 viewBox="0 0 13631 6108.4" style="enable-background:new 0 0 13631 6108.4;" xml:space="preserve">
<style type="text/css">
	.st0{fill:#010101;}
	.st1{fill:#989898;}
	.st2{fill-rule:evenodd;clip-rule:evenodd;fill:#010101;}
</style>
<path class="st0" d="M445.3,953.5H555V79.1l-109.7-71V953.5z M445.3,2821.9H555v-451.8H445.3V2821.9z M445.3,5012.9H555V3451.1
	H445.3V5012.9z M445.3,6103.6L555,5997.1v-355H445.3V6103.6z"/>
<path class="st0" d="M445.3,6108.4c-2.7,0-4.8-2.2-4.8-4.8v-461.4c0-2.7,2.2-4.8,4.8-4.8H555c2.7,0,4.8,2.2,4.8,4.8
	c0,2.7-2.2,4.8-4.8,4.8H450.2v456.6C450.2,6106.3,448,6108.4,445.3,6108.4z"/>
<path class="st0" d="M555,6001.9c-2.7,0-4.8-2.2-4.8-4.8v-355c0-2.7,2.2-4.8,4.8-4.8s4.8,2.2,4.8,4.8v355
	C559.9,5999.8,557.7,6001.9,555,6001.9z"/>
<path class="st0" d="M555,5017.7H445.3c-2.7,0-4.8-2.2-4.8-4.8V3451.1c0-2.7,2.2-4.8,4.8-4.8H555c2.7,0,4.8,2.2,4.8,4.8v1561.8
	C559.9,5015.6,557.7,5017.7,555,5017.7z M450.2,5008.1h100V3455.9h-100V5008.1z"/>
<path class="st0" d="M555,2826.7H445.3c-2.7,0-4.8-2.2-4.8-4.8v-451.8c0-2.7,2.2-4.8,4.8-4.8H555c2.7,0,4.8,2.2,4.8,4.8v451.8
	C559.9,2824.6,557.7,2826.7,555,2826.7z M450.2,2817.1h100v-442.1h-100V2817.1z"/>
<path class="st0" d="M555,958.4H445.3c-2.7,0-4.8-2.2-4.8-4.8V8.1c0-2.7,2.2-4.8,4.8-4.8s4.8,2.2,4.8,4.8v940.6h100V79.1
	c0-2.7,2.2-4.8,4.8-4.8s4.8,2.2,4.8,4.8v874.5C559.9,956.2,557.7,958.4,555,958.4z"/>
<path class="st0" d="M555,5645.4c-1.8,0-3.2-1.4-3.2-3.2v-629.2c0-1.8,1.4-3.2,3.2-3.2c1.8,0,3.2,1.4,3.2,3.2v629.2
	C558.3,5643.9,556.8,5645.4,555,5645.4z"/>
<path class="st0" d="M445.3,5645.4c-1.8,0-3.2-1.4-3.2-3.2v-629.2c0-1.8,1.4-3.2,3.2-3.2c1.8,0,3.2,1.4,3.2,3.2v629.2
	C448.5,5643.9,447.1,5645.4,445.3,5645.4z"/>
<path class="st0" d="M6740.9,56.5l3.2,6.5h6392.4l6.5-6.5l41.9-48.4H6757L6740.9,56.5z M13120.3,79.1l16.1-16.1H8444.6l22.6,16.1
	H13120.3z M8399.5,79.1l45.2-16.1H6744.1l12.9,16.1H8399.5z"/>
<path class="st0" d="M13120.3,83.9H8467.2c-2.7,0-4.8-2.2-4.8-4.8c0-2.7,2.2-4.8,4.8-4.8h4653.1c2.7,0,4.8,2.2,4.8,4.8
	C13125.2,81.7,13123,83.9,13120.3,83.9z"/>
<path class="st0" d="M13184.9,12.9H6757c-2.7,0-4.8-2.2-4.8-4.8s2.2-4.8,4.8-4.8h6427.9c2.7,0,4.8,2.2,4.8,4.8
	S13187.6,12.9,13184.9,12.9z"/>
<path class="st0" d="M8399.5,83.9H6757c-2.7,0-4.8-2.2-4.8-4.8c0-2.7,2.2-4.8,4.8-4.8h1642.5c2.7,0,4.8,2.2,4.8,4.8
	C8404.3,81.7,8402.2,83.9,8399.5,83.9z"/>
<polygon class="st0" points="5401.7,8.1 5469.5,117.8 6689.2,117.8 6757,8.1 "/>
<path class="st0" d="M6689.2,122.6H5469.5c-2.7,0-4.8-2.2-4.8-4.8c0-2.7,2.2-4.8,4.8-4.8h1219.7c2.7,0,4.8,2.2,4.8,4.8
	C6694.1,120.5,6691.9,122.6,6689.2,122.6z"/>
<path class="st0" d="M6757,12.9H5401.7c-2.7,0-4.8-2.2-4.8-4.8s2.2-4.8,4.8-4.8H6757c2.7,0,4.8,2.2,4.8,4.8S6759.7,12.9,6757,12.9z"
	/>
<rect x="5301.7" y="79.1" class="st1" width="100" height="1416.6"/>
<path class="st0" d="M4153,79.1l45.2-16.1h-54.9L4153,79.1z M4136.8,79.1l3.2-16.1h-742.2l3.2,16.1H4136.8z M3385,79.1l9.7-16.1H526
	l29,16.1H3385z"/>
<path class="st0" d="M4153,84.1c-1.7,0-3.4-0.9-4.3-2.4l-9.7-16.1c-0.5-0.8-0.7-1.7-0.7-2.6c0-1.7,0.9-3.4,2.4-4.3
	c2.4-1.4,5.5-0.7,6.9,1.7l9.7,16.1c0.5,0.8,0.7,1.7,0.7,2.6c0,1.7-0.9,3.4-2.4,4.3C4154.7,83.9,4153.8,84.1,4153,84.1z"/>
<path class="st0" d="M5414.6,62.9l3.2-6.5H4143.3v6.5H5414.6z M4140,62.9l3.2-6.5h-748.6l3.2,6.5H4140z M3394.6,62.9v-6.5H519.5
	l6.5,6.5H3394.6z M5401.7,79.1l12.9-16.1h-158.1l45.2,16.1H5401.7z M5233.9,79.1l22.6-16.1H4198.1l25.8,16.1H5233.9z"/>
<path class="st0" d="M5417.9,61.5H516.3c-2.8,0-5-2.3-5-5s2.3-5,5-5h4901.6c2.8,0,5,2.3,5,5S5420.7,61.5,5417.9,61.5z"/>
<polygon class="st0" points="5417.9,56.5 5401.7,8.1 445.3,8.1 516.3,56.5 "/>
<path class="st0" d="M4136.8,83.9h-735.7c-2.7,0-4.8-2.2-4.8-4.8c0-2.7,2.2-4.8,4.8-4.8h735.7c2.7,0,4.8,2.2,4.8,4.8
	C4141.7,81.7,4139.5,83.9,4136.8,83.9z"/>
<path class="st0" d="M4153,83.9c-2.7,0-4.8-2.2-4.8-4.8v-3.2c0-2.7,2.2-4.8,4.8-4.8c2.7,0,4.8,2.2,4.8,4.8v3.2
	C4157.8,81.7,4155.6,83.9,4153,83.9z"/>
<path class="st0" d="M5233.9,83.9h-1010c-2.7,0-4.8-2.2-4.8-4.8c0-2.7,2.2-4.8,4.8-4.8h1010c2.7,0,4.8,2.2,4.8,4.8
	C5238.8,81.7,5236.6,83.9,5233.9,83.9z"/>
<path class="st0" d="M5401.7,83.9h-100c-2.7,0-4.8-2.2-4.8-4.8c0-2.7,2.2-4.8,4.8-4.8h100c2.7,0,4.8,2.2,4.8,4.8
	C5406.6,81.7,5404.4,83.9,5401.7,83.9z"/>
<path class="st0" d="M5401.7,12.9H445.3c-2.7,0-4.8-2.2-4.8-4.8s2.2-4.8,4.8-4.8h4956.4c2.7,0,4.8,2.2,4.8,4.8
	S5404.4,12.9,5401.7,12.9z"/>
<path class="st0" d="M3385,83.9H555c-2.7,0-4.8-2.2-4.8-4.8c0-2.7,2.2-4.8,4.8-4.8H3385c2.7,0,4.8,2.2,4.8,4.8
	C3389.8,81.7,3387.6,83.9,3385,83.9z"/>
<path class="st0" d="M906.7,6103.6v-106.5H555l-109.7,106.5H906.7z M3178.4,6103.6v-106.5H1536v106.5H3178.4z M4653.1,6103.6v-106.5
	h-845.4v106.5H4653.1z M5321.1,6103.6v-106.5h-38.7v106.5H5321.1z M6718.3,6103.6v-106.5h-768v106.5H6718.3z M8467.2,6103.6
	l-106.5-106.5H7347.5v106.5H8467.2z"/>
<path class="st0" d="M8467.2,6108.4H7347.5c-2.7,0-4.8-2.2-4.8-4.8v-106.5c0-2.7,2.2-4.8,4.8-4.8h1013.2c2.7,0,4.8,2.2,4.8,4.8
	c0,2.7-2.2,4.8-4.8,4.8H7352.4v96.8h1114.9c2.7,0,4.8,2.2,4.8,4.8C8472.1,6106.3,8469.9,6108.4,8467.2,6108.4z"/>
<path class="st0" d="M6718.3,6108.4h-768c-2.7,0-4.8-2.2-4.8-4.8v-106.5c0-2.7,2.2-4.8,4.8-4.8h768c2.7,0,4.8,2.2,4.8,4.8v106.5
	C6723.1,6106.3,6721,6108.4,6718.3,6108.4z M5955.1,6098.7h758.3v-96.8h-758.3V6098.7z"/>
<path class="st0" d="M5321.1,6108.4h-38.7c-2.7,0-4.8-2.2-4.8-4.8v-106.5c0-2.7,2.2-4.8,4.8-4.8h38.7c2.7,0,4.8,2.2,4.8,4.8v106.5
	C5325.9,6106.3,5323.7,6108.4,5321.1,6108.4z M5287.2,6098.7h29v-96.8h-29V6098.7z"/>
<path class="st0" d="M4653.1,6108.4h-845.4c-2.7,0-4.8-2.2-4.8-4.8v-106.5c0-2.7,2.2-4.8,4.8-4.8h845.4c2.7,0,4.8,2.2,4.8,4.8v106.5
	C4658,6106.3,4655.8,6108.4,4653.1,6108.4z M3812.5,6098.7h835.8v-96.8h-835.8V6098.7z"/>
<path class="st0" d="M3178.4,6108.4H1536c-2.7,0-4.8-2.2-4.8-4.8v-106.5c0-2.7,2.2-4.8,4.8-4.8h1642.5c2.7,0,4.8,2.2,4.8,4.8v106.5
	C3183.3,6106.3,3181.1,6108.4,3178.4,6108.4z M1540.8,6098.7h1632.8v-96.8H1540.8V6098.7z"/>
<path class="st0" d="M906.7,6108.4c-2.7,0-4.8-2.2-4.8-4.8v-101.7H555c-2.7,0-4.8-2.2-4.8-4.8c0-2.7,2.2-4.8,4.8-4.8h351.7
	c2.7,0,4.8,2.2,4.8,4.8v106.5C911.6,6106.3,909.4,6108.4,906.7,6108.4z"/>
<path class="st0" d="M906.7,6108.4H445.3c-2.7,0-4.8-2.2-4.8-4.8c0-2.7,2.2-4.8,4.8-4.8h461.4c2.7,0,4.8,2.2,4.8,4.8
	C911.6,6106.3,909.4,6108.4,906.7,6108.4z"/>
<path class="st0" d="M555,3454.3c-1.8,0-3.2-1.4-3.2-3.2v-629.2c0-1.8,1.4-3.2,3.2-3.2c1.8,0,3.2,1.4,3.2,3.2v629.2
	C558.3,3452.9,556.8,3454.3,555,3454.3z"/>
<path class="st0" d="M445.3,3454.3c-1.8,0-3.2-1.4-3.2-3.2v-629.2c0-1.8,1.4-3.2,3.2-3.2c1.8,0,3.2,1.4,3.2,3.2v629.2
	C448.5,3452.9,447.1,3454.3,445.3,3454.3z"/>
<path class="st0" d="M555,956.8H445.3c-1.8,0-3.2-1.4-3.2-3.2s1.4-3.2,3.2-3.2H555c1.8,0,3.2,1.4,3.2,3.2S556.8,956.8,555,956.8z"/>
<path class="st0" d="M555,2373.3H445.3c-1.8,0-3.2-1.4-3.2-3.2s1.4-3.2,3.2-3.2H555c1.8,0,3.2,1.4,3.2,3.2S556.8,2373.3,555,2373.3z
	"/>
<path class="st0" d="M4223.9,2270.1h-71v187.2l71-67.8V2270.1z M4201.4,1395.6H4153v287.2h48.4V1395.6z M4223.9,1395.6h-22.6v142
	l22.6-45.2V1395.6z M4223.9,1563.4l-22.6-25.8v145.2h22.6V1563.4z M4198.1,847h25.8v-768l-25.8-16.1L4153,79.1v768H4198.1z"/>
<path class="st0" d="M4223.9,851.9h-71c-2.7,0-4.8-2.2-4.8-4.8s2.2-4.8,4.8-4.8h66.1V79.1c0-2.7,2.2-4.8,4.8-4.8
	c2.7,0,4.8,2.2,4.8,4.8v768C4228.8,849.7,4226.6,851.9,4223.9,851.9z"/>
<path class="st0" d="M4153,851.9c-2.7,0-4.8-2.2-4.8-4.8v-768c0-2.7,2.2-4.8,4.8-4.8c2.7,0,4.8,2.2,4.8,4.8v768
	C4157.8,849.7,4155.6,851.9,4153,851.9z"/>
<path class="st0" d="M4223.9,1687.6h-71c-2.7,0-4.8-2.2-4.8-4.8c0-2.7,2.2-4.8,4.8-4.8h66.1v-114.6c0-2.7,2.2-4.8,4.8-4.8
	c2.7,0,4.8,2.2,4.8,4.8v119.4C4228.8,1685.5,4226.6,1687.6,4223.9,1687.6z"/>
<path class="st0" d="M4153,1687.6c-2.7,0-4.8-2.2-4.8-4.8v-287.2c0-2.7,2.2-4.8,4.8-4.8h71c2.7,0,4.8,2.2,4.8,4.8v96.8
	c0,2.7-2.2,4.8-4.8,4.8c-2.7,0-4.8-2.2-4.8-4.8v-92h-61.3v282.3C4157.8,1685.5,4155.6,1687.6,4153,1687.6z"/>
<path class="st0" d="M4153,2462.1c-2.7,0-4.8-2.2-4.8-4.8v-187.2c0-2.7,2.2-4.8,4.8-4.8h71c2.7,0,4.8,2.2,4.8,4.8v119.4
	c0,2.7-2.2,4.8-4.8,4.8c-2.7,0-4.8-2.2-4.8-4.8v-114.6h-61.3v182.3C4157.8,2459.9,4155.6,2462.1,4153,2462.1z"/>
<polygon class="st2" points="5401.7,8.1 5417.9,37.1 5417.9,56.5 "/>
<path class="st0" d="M5417.9,42.1c-1.8,0-3.5-0.9-4.4-2.6l-16.1-29c-0.4-0.8-0.6-1.6-0.6-2.4c0-1.8,0.9-3.5,2.6-4.4
	c2.5-1.3,5.5-0.5,6.9,2l16.1,29c0.4,0.8,0.6,1.6,0.6,2.4c0,1.8-0.9,3.5-2.6,4.4C5419.5,41.9,5418.7,42.1,5417.9,42.1z"/>
<path class="st0" d="M5424.3,46.8l-6.5-9.7v1471.4l6.5,3.2l45.2-19.4V117.8L5424.3,46.8z M5401.7,1492.4l16.1,16.1V56.5l-16.1,22.6
	V1492.4z"/>
<path class="st0" d="M5401.7,1497.2c-2.7,0-4.8-2.2-4.8-4.8V79.1c0-2.7,2.2-4.8,4.8-4.8c2.7,0,4.8,2.2,4.8,4.8v1413.3
	C5406.6,1495.1,5404.4,1497.2,5401.7,1497.2z"/>
<path class="st0" d="M5469.5,1497.2c-2.7,0-4.8-2.2-4.8-4.8V117.8c0-2.7,2.2-4.8,4.8-4.8c2.7,0,4.8,2.2,4.8,4.8v1374.6
	C5474.3,1495.1,5472.2,1497.2,5469.5,1497.2z"/>
<path class="st0" d="M5401.7,12.9c-2.7,0-4.8-2.2-4.8-4.8V4.8c0-2.7,2.2-4.8,4.8-4.8c2.7,0,4.8,2.2,4.8,4.8v3.2
	C5406.6,10.7,5404.4,12.9,5401.7,12.9z"/>
<path class="st0" d="M6757,8.1l-16.1,29v19.4L6757,8.1z M6757,79.1l-16.1-22.6v535.7l16.1-22.6V79.1z M6757,637.3l-16.1-45.2V847
	h16.1V637.3z"/>
<path class="st0" d="M6740.9,61.5c-0.5,0-1.1-0.1-1.6-0.3c-2.1-0.7-3.5-2.7-3.5-4.8c0-0.5,0.1-1.1,0.3-1.6l16.1-48.4
	c0.9-2.6,3.7-4.1,6.4-3.2c2.1,0.7,3.5,2.7,3.5,4.8c0,0.5-0.1,1.1-0.3,1.6l-16.1,48.4C6745,60.2,6743,61.5,6740.9,61.5z"/>
<path class="st0" d="M6757,1395.6h-67.8v96.8l67.8,71V1395.6z M6740.9,37.1l-51.6,80.7V847h51.6V37.1z"/>
<path class="st0" d="M6757,851.9h-67.8c-2.7,0-4.8-2.2-4.8-4.8s2.2-4.8,4.8-4.8h62.9V637.3c0-2.7,2.2-4.8,4.8-4.8
	c2.7,0,4.8,2.2,4.8,4.8V847C6761.9,849.7,6759.7,851.9,6757,851.9z"/>
<path class="st0" d="M6757,574.4c-2.7,0-4.8-2.2-4.8-4.8V79.1c0-2.7,2.2-4.8,4.8-4.8c2.7,0,4.8,2.2,4.8,4.8v490.5
	C6761.9,572.2,6759.7,574.4,6757,574.4z"/>
<path class="st0" d="M6757,12.9c-2.7,0-4.8-2.2-4.8-4.8V4.8c0-2.7,2.2-4.8,4.8-4.8c2.7,0,4.8,2.2,4.8,4.8v3.2
	C6761.9,10.7,6759.7,12.9,6757,12.9z"/>
<path class="st0" d="M6689.2,851.9c-2.7,0-4.8-2.2-4.8-4.8V117.8c0-2.7,2.2-4.8,4.8-4.8c2.7,0,4.8,2.2,4.8,4.8V847
	C6694.1,849.7,6691.9,851.9,6689.2,851.9z"/>
<path class="st0" d="M6757,1568.2c-2.7,0-4.8-2.2-4.8-4.8v-162.9h-58.1v92c0,2.7-2.2,4.8-4.8,4.8c-2.7,0-4.8-2.2-4.8-4.8v-96.8
	c0-2.7,2.2-4.8,4.8-4.8h67.8c2.7,0,4.8,2.2,4.8,4.8v167.8C6761.9,1566.1,6759.7,1568.2,6757,1568.2z"/>
<polygon class="st0" points="7612.1,2457.2 7544.4,2389.5 7544.4,5064.5 7612.1,4993.5 "/>
<path class="st0" d="M7544.4,5069.4c-2.7,0-4.8-2.2-4.8-4.8v-2675c0-2.7,2.2-4.8,4.8-4.8c2.7,0,4.8,2.2,4.8,4.8v2675
	C7549.2,5067.2,7547,5069.4,7544.4,5069.4z"/>
<path class="st0" d="M7612.1,4998.4c-2.7,0-4.8-2.2-4.8-4.8V2457.2c0-2.7,2.2-4.8,4.8-4.8c2.7,0,4.8,2.2,4.8,4.8v2536.3
	C7616.9,4996.2,7614.8,4998.4,7612.1,4998.4z"/>
<path class="st0" d="M6705.4,1511.8l-16.1-19.4H5469.5l-45.2,19.4H6705.4z M5424.3,1511.8l-22.6-19.4h-100l-45.2,19.4H5424.3z
	 M5256.5,1511.8l-22.6-19.4h-1010l-9.7,19.4H5256.5z M4201.4,1537.6l22.6,25.8H6757l-22.6-25.8l-29-25.8H4214.3L4201.4,1537.6z"/>
<path class="st0" d="M5233.9,1497.2h-1010c-2.7,0-4.8-2.2-4.8-4.8c0-2.7,2.2-4.8,4.8-4.8h1010c2.7,0,4.8,2.2,4.8,4.8
	C5238.8,1495.1,5236.6,1497.2,5233.9,1497.2z"/>
<path class="st0" d="M6757,1568.2H4223.9c-2.7,0-4.8-2.2-4.8-4.8c0-2.7,2.2-4.8,4.8-4.8H6757c2.7,0,4.8,2.2,4.8,4.8
	C6761.9,1566.1,6759.7,1568.2,6757,1568.2z"/>
<path class="st0" d="M6689.2,1497.2H5469.5c-2.7,0-4.8-2.2-4.8-4.8c0-2.7,2.2-4.8,4.8-4.8h1219.7c2.7,0,4.8,2.2,4.8,4.8
	C6694.1,1495.1,6691.9,1497.2,6689.2,1497.2z"/>
<path class="st0" d="M5401.7,1497.2h-100c-2.7,0-4.8-2.2-4.8-4.8c0-2.7,2.2-4.8,4.8-4.8h100c2.7,0,4.8,2.2,4.8,4.8
	C5406.6,1495.1,5404.4,1497.2,5401.7,1497.2z"/>
<polygon class="st0" points="6050.3,2457.2 6050.3,2389.5 4223.9,2389.5 4153,2457.2 "/>
<path class="st0" d="M6050.3,2394.3H4223.9c-2.7,0-4.8-2.2-4.8-4.8c0-2.7,2.2-4.8,4.8-4.8h1826.4c2.7,0,4.8,2.2,4.8,4.8
	C6055.2,2392.2,6053,2394.3,6050.3,2394.3z"/>
<path class="st0" d="M6050.3,2462.1H4153c-2.7,0-4.8-2.2-4.8-4.8c0-2.7,2.2-4.8,4.8-4.8h1892.5v-62.9c0-2.7,2.2-4.8,4.8-4.8
	s4.8,2.2,4.8,4.8v67.8C6055.2,2459.9,6053,2462.1,6050.3,2462.1z"/>
<path class="st0" d="M8418.8,592.1l-19.4-22.6h-232.3v67.8h232.3L8418.8,592.1z M6989.3,592.1v-22.6H6757l-16.1,22.6l16.1,45.2
	h232.3V592.1z"/>
<path class="st0" d="M6989.3,642.1c-2.7,0-4.8-2.2-4.8-4.8v-62.9H6757c-2.7,0-4.8-2.2-4.8-4.8s2.2-4.8,4.8-4.8h232.3
	c2.7,0,4.8,2.2,4.8,4.8v67.8C6994.2,640,6992,642.1,6989.3,642.1z"/>
<path class="st0" d="M6989.3,642.1H6757c-2.7,0-4.8-2.2-4.8-4.8s2.2-4.8,4.8-4.8h232.3c2.7,0,4.8,2.2,4.8,4.8
	S6992,642.1,6989.3,642.1z"/>
<path class="st0" d="M8399.5,642.1h-232.3c-2.7,0-4.8-2.2-4.8-4.8v-67.8c0-2.7,2.2-4.8,4.8-4.8h232.3c2.7,0,4.8,2.2,4.8,4.8
	s-2.2,4.8-4.8,4.8H8172v58.1h227.5c2.7,0,4.8,2.2,4.8,4.8S8402.2,642.1,8399.5,642.1z"/>
<path class="st0" d="M8467.2,5884.1h-106.5v112.9l106.5,106.5V5884.1z M8431.7,5177.5h35.5v-112.9l-35.5-16.1l-71,16.1v112.9H8431.7
	z"/>
<path class="st0" d="M8467.2,5182.3h-106.5c-2.7,0-4.8-2.2-4.8-4.8c0-2.7,2.2-4.8,4.8-4.8h101.7v-108.1c0-2.7,2.2-4.8,4.8-4.8
	c2.7,0,4.8,2.2,4.8,4.8v112.9C8472.1,5180.1,8469.9,5182.3,8467.2,5182.3z"/>
<path class="st0" d="M8360.7,5182.3c-2.7,0-4.8-2.2-4.8-4.8v-112.9c0-2.7,2.2-4.8,4.8-4.8c2.7,0,4.8,2.2,4.8,4.8v112.9
	C8365.6,5180.1,8363.4,5182.3,8360.7,5182.3z"/>
<path class="st0" d="M8467.2,6108.4c-2.7,0-4.8-2.2-4.8-4.8V5889h-96.8v108.1c0,2.7-2.2,4.8-4.8,4.8c-2.7,0-4.8-2.2-4.8-4.8v-112.9
	c0-2.7,2.2-4.8,4.8-4.8h106.5c2.7,0,4.8,2.2,4.8,4.8v219.4C8472.1,6106.3,8469.9,6108.4,8467.2,6108.4z"/>
<path class="st0" d="M11623.1,5048.4v-54.9h-4011l-51.6,54.9H11623.1z M11623.1,5064.5v-16.1H8431.7l35.5,16.1H11623.1z
	 M8360.7,5064.5l71-16.1h-871.2l-16.1,16.1H8360.7z M13184.9,5064.5l-64.5-71h-864.8v71H13184.9z"/>
<path class="st0" d="M13184.9,5069.4h-929.3c-2.7,0-4.8-2.2-4.8-4.8v-71c0-2.7,2.2-4.8,4.8-4.8h864.8c2.7,0,4.8,2.2,4.8,4.8
	c0,2.7-2.2,4.8-4.8,4.8h-859.9v61.3h924.5c2.7,0,4.8,2.2,4.8,4.8C13189.7,5067.2,13187.6,5069.4,13184.9,5069.4z"/>
<path class="st0" d="M11623.1,5069.4c-2.7,0-4.8-2.2-4.8-4.8v-66.1H7612.1c-2.7,0-4.8-2.2-4.8-4.8c0-2.7,2.2-4.8,4.8-4.8h4011
	c2.7,0,4.8,2.2,4.8,4.8v71C11627.9,5067.2,11625.8,5069.4,11623.1,5069.4z"/>
<path class="st0" d="M8360.7,5069.4h-816.4c-2.7,0-4.8-2.2-4.8-4.8c0-2.7,2.2-4.8,4.8-4.8h816.4c2.7,0,4.8,2.2,4.8,4.8
	C8365.6,5067.2,8363.4,5069.4,8360.7,5069.4z"/>
<path class="st0" d="M11623.1,5069.4H8467.2c-2.7,0-4.8-2.2-4.8-4.8c0-2.7,2.2-4.8,4.8-4.8h3155.9c2.7,0,4.8,2.2,4.8,4.8
	C11627.9,5067.2,11625.8,5069.4,11623.1,5069.4z"/>
<path class="st0" d="M6757,1398.8h-67.8c-1.8,0-3.2-1.4-3.2-3.2s1.4-3.2,3.2-3.2h67.8c1.8,0,3.2,1.4,3.2,3.2
	S6758.8,1398.8,6757,1398.8z"/>
<path class="st0" d="M6757,850.3h-67.8c-1.8,0-3.2-1.4-3.2-3.2c0-1.8,1.4-3.2,3.2-3.2h67.8c1.8,0,3.2,1.4,3.2,3.2
	C6760.2,848.8,6758.8,850.3,6757,850.3z"/>
<path class="st0" d="M4223.9,1398.8h-71c-1.8,0-3.2-1.4-3.2-3.2s1.4-3.2,3.2-3.2h71c1.8,0,3.2,1.4,3.2,3.2
	S4225.7,1398.8,4223.9,1398.8z"/>
<path class="st0" d="M4223.9,850.3h-71c-1.8,0-3.2-1.4-3.2-3.2c0-1.8,1.4-3.2,3.2-3.2h71c1.8,0,3.2,1.4,3.2,3.2
	C4227.2,848.8,4225.7,850.3,4223.9,850.3z"/>
<path class="st0" d="M8167.1,640.5c-1.8,0-3.2-1.4-3.2-3.2v-67.8c0-1.8,1.4-3.2,3.2-3.2s3.2,1.4,3.2,3.2v67.8
	C8170.4,639.1,8168.9,640.5,8167.1,640.5z"/>
<path class="st0" d="M6989.3,640.5c-1.8,0-3.2-1.4-3.2-3.2v-67.8c0-1.8,1.4-3.2,3.2-3.2s3.2,1.4,3.2,3.2v67.8
	C6992.6,639.1,6991.1,640.5,6989.3,640.5z"/>
<path class="st0" d="M4223.9,2273.3h-71c-1.8,0-3.2-1.4-3.2-3.2s1.4-3.2,3.2-3.2h71c1.8,0,3.2,1.4,3.2,3.2
	S4225.7,2273.3,4223.9,2273.3z"/>
<path class="st0" d="M4223.9,1686h-71c-1.8,0-3.2-1.4-3.2-3.2s1.4-3.2,3.2-3.2h71c1.8,0,3.2,1.4,3.2,3.2S4225.7,1686,4223.9,1686z"
	/>
<path class="st0" d="M4282,2392.7c-1.8,0-3.2-1.4-3.2-3.2v-826.1c0-1.8,1.4-3.2,3.2-3.2s3.2,1.4,3.2,3.2v826.1
	C4285.3,2391.3,4283.8,2392.7,4282,2392.7z"/>
<path class="st0" d="M4459.5,2392.7c-1.8,0-3.2-1.4-3.2-3.2v-826.1c0-1.8,1.4-3.2,3.2-3.2s3.2,1.4,3.2,3.2v826.1
	C4462.7,2391.3,4461.3,2392.7,4459.5,2392.7z"/>
<path class="st0" d="M4633.7,2392.7c-1.8,0-3.2-1.4-3.2-3.2v-826.1c0-1.8,1.4-3.2,3.2-3.2s3.2,1.4,3.2,3.2v826.1
	C4637,2391.3,4635.5,2392.7,4633.7,2392.7z"/>
<path class="st0" d="M4811.2,2392.7c-1.8,0-3.2-1.4-3.2-3.2v-826.1c0-1.8,1.4-3.2,3.2-3.2s3.2,1.4,3.2,3.2v826.1
	C4814.5,2391.3,4813,2392.7,4811.2,2392.7z"/>
<path class="st0" d="M4988.7,2392.7c-1.8,0-3.2-1.4-3.2-3.2v-684.1c0-1.8,1.4-3.2,3.2-3.2c1.8,0,3.2,1.4,3.2,3.2v684.1
	C4991.9,2391.3,4990.5,2392.7,4988.7,2392.7z"/>
<path class="st0" d="M5166.2,2392.7c-1.8,0-3.2-1.4-3.2-3.2v-206.5c0-1.8,1.4-3.2,3.2-3.2s3.2,1.4,3.2,3.2v206.5
	C5169.4,2391.3,5168,2392.7,5166.2,2392.7z"/>
<path class="st0" d="M5343.7,2195.9c-1.8,0-3.2-1.4-3.2-3.2v-629.2c0-1.8,1.4-3.2,3.2-3.2s3.2,1.4,3.2,3.2v629.2
	C5346.9,2194.4,5345.4,2195.9,5343.7,2195.9z"/>
<path class="st0" d="M5517.9,2392.7c-1.8,0-3.2-1.4-3.2-3.2v-826.1c0-1.8,1.4-3.2,3.2-3.2s3.2,1.4,3.2,3.2v826.1
	C5521.1,2391.3,5519.7,2392.7,5517.9,2392.7z"/>
<path class="st0" d="M5695.4,2392.7c-1.8,0-3.2-1.4-3.2-3.2v-826.1c0-1.8,1.4-3.2,3.2-3.2s3.2,1.4,3.2,3.2v826.1
	C5698.6,2391.3,5697.2,2392.7,5695.4,2392.7z"/>
<path class="st0" d="M5872.9,2392.7c-1.8,0-3.2-1.4-3.2-3.2v-826.1c0-1.8,1.4-3.2,3.2-3.2s3.2,1.4,3.2,3.2v826.1
	C5876.1,2391.3,5874.6,2392.7,5872.9,2392.7z"/>
<path class="st0" d="M6050.3,2392.7c-1.8,0-3.2-1.4-3.2-3.2v-826.1c0-1.8,1.4-3.2,3.2-3.2s3.2,1.4,3.2,3.2v826.1
	C6053.6,2391.3,6052.1,2392.7,6050.3,2392.7z"/>
<path class="st0" d="M6227.8,2399.2c-1.8,0-3.2-1.4-3.2-3.2v-832.5c0-1.8,1.4-3.2,3.2-3.2s3.2,1.4,3.2,3.2v832.5
	C6231,2397.7,6229.6,2399.2,6227.8,2399.2z"/>
<path class="st0" d="M6402.1,2399.2c-1.8,0-3.2-1.4-3.2-3.2v-832.5c0-1.8,1.4-3.2,3.2-3.2s3.2,1.4,3.2,3.2v832.5
	C6405.3,2397.7,6403.8,2399.2,6402.1,2399.2z"/>
<path class="st0" d="M6579.5,2399.2c-1.8,0-3.2-1.4-3.2-3.2v-832.5c0-1.8,1.4-3.2,3.2-3.2s3.2,1.4,3.2,3.2v832.5
	C6582.8,2397.7,6581.3,2399.2,6579.5,2399.2z"/>
<path class="st0" d="M6757,2466.9h-67.8c-1.8,0-3.2-1.4-3.2-3.2c0-1.8,1.4-3.2,3.2-3.2h64.5v-897.1c0-1.8,1.4-3.2,3.2-3.2
	s3.2,1.4,3.2,3.2v900.3C6760.2,2465.5,6758.8,2466.9,6757,2466.9z"/>
<path class="st0" d="M8467.2,5887.4h-106.5c-1.8,0-3.2-1.4-3.2-3.2s1.4-3.2,3.2-3.2h106.5c1.8,0,3.2,1.4,3.2,3.2
	S8469,5887.4,8467.2,5887.4z"/>
<path class="st0" d="M8467.2,5180.7h-106.5c-1.8,0-3.2-1.4-3.2-3.2s1.4-3.2,3.2-3.2h106.5c1.8,0,3.2,1.4,3.2,3.2
	S8469,5180.7,8467.2,5180.7z"/>
<path class="st0" d="M1536,6000.3H906.7c-1.8,0-3.2-1.4-3.2-3.2s1.4-3.2,3.2-3.2H1536c1.8,0,3.2,1.4,3.2,3.2
	S1537.8,6000.3,1536,6000.3z"/>
<path class="st0" d="M1536,6106.8H906.7c-1.8,0-3.2-1.4-3.2-3.2s1.4-3.2,3.2-3.2H1536c1.8,0,3.2,1.4,3.2,3.2
	S1537.8,6106.8,1536,6106.8z"/>
<path class="st0" d="M3807.7,6000.3h-629.2c-1.8,0-3.2-1.4-3.2-3.2s1.4-3.2,3.2-3.2h629.2c1.8,0,3.2,1.4,3.2,3.2
	S3809.5,6000.3,3807.7,6000.3z"/>
<path class="st0" d="M3807.7,6106.8h-629.2c-1.8,0-3.2-1.4-3.2-3.2s1.4-3.2,3.2-3.2h629.2c1.8,0,3.2,1.4,3.2,3.2
	S3809.5,6106.8,3807.7,6106.8z"/>
<path class="st0" d="M5950.3,6000.3h-629.2c-1.8,0-3.2-1.4-3.2-3.2s1.4-3.2,3.2-3.2h629.2c1.8,0,3.2,1.4,3.2,3.2
	S5952.1,6000.3,5950.3,6000.3z"/>
<path class="st0" d="M5950.3,6106.8h-629.2c-1.8,0-3.2-1.4-3.2-3.2s1.4-3.2,3.2-3.2h629.2c1.8,0,3.2,1.4,3.2,3.2
	S5952.1,6106.8,5950.3,6106.8z"/>
<path class="st0" d="M7347.5,6000.3h-629.2c-1.8,0-3.2-1.4-3.2-3.2s1.4-3.2,3.2-3.2h629.2c1.8,0,3.2,1.4,3.2,3.2
	S7349.3,6000.3,7347.5,6000.3z"/>
<path class="st0" d="M7347.5,6106.8h-629.2c-1.8,0-3.2-1.4-3.2-3.2s1.4-3.2,3.2-3.2h629.2c1.8,0,3.2,1.4,3.2,3.2
	S7349.3,6106.8,7347.5,6106.8z"/>
<path class="st0" d="M13184.9,4448.2h-64.5v545.3l64.5,71V4448.2z M13184.9,8.1l-64.5,71v545.3h64.5V8.1z"/>
<path class="st0" d="M13184.9,629.2h-64.5c-2.7,0-4.8-2.2-4.8-4.8s2.2-4.8,4.8-4.8h59.7V8.1c0-2.7,2.2-4.8,4.8-4.8s4.8,2.2,4.8,4.8
	v616.3C13189.7,627.1,13187.6,629.2,13184.9,629.2z"/>
<path class="st0" d="M13120.3,629.2c-2.7,0-4.8-2.2-4.8-4.8V79.1c0-2.7,2.2-4.8,4.8-4.8c2.7,0,4.8,2.2,4.8,4.8v545.3
	C13125.2,627.1,13123,629.2,13120.3,629.2z"/>
<path class="st0" d="M13184.9,5069.4c-2.7,0-4.8-2.2-4.8-4.8V4453h-54.9v540.5c0,2.7-2.2,4.8-4.8,4.8c-2.7,0-4.8-2.2-4.8-4.8v-545.3
	c0-2.7,2.2-4.8,4.8-4.8h64.5c2.7,0,4.8,2.2,4.8,4.8v616.3C13189.7,5067.2,13187.6,5069.4,13184.9,5069.4z"/>
<path class="st0" d="M12255.6,4996.8h-632.5c-1.8,0-3.2-1.4-3.2-3.2s1.4-3.2,3.2-3.2h632.5c1.8,0,3.2,1.4,3.2,3.2
	S12257.3,4996.8,12255.6,4996.8z"/>
<path class="st0" d="M12255.6,5067.8h-632.5c-1.8,0-3.2-1.4-3.2-3.2s1.4-3.2,3.2-3.2h632.5c1.8,0,3.2,1.4,3.2,3.2
	S12257.3,5067.8,12255.6,5067.8z"/>
<path class="st0" d="M7692.8,2457.2v-67.8h-148.4l67.8,67.8H7692.8z M8467.2,2457.2l-67.8-67.8h-80.7v67.8H8467.2z"/>
<path class="st0" d="M8467.2,2462.1h-148.4c-2.7,0-4.8-2.2-4.8-4.8v-67.8c0-2.7,2.2-4.8,4.8-4.8c2.7,0,4.8,2.2,4.8,4.8v62.9h143.6
	c2.7,0,4.8,2.2,4.8,4.8C8472.1,2459.9,8469.9,2462.1,8467.2,2462.1z"/>
<path class="st0" d="M8399.5,2394.3h-80.7c-2.7,0-4.8-2.2-4.8-4.8c0-2.7,2.2-4.8,4.8-4.8h80.7c2.7,0,4.8,2.2,4.8,4.8
	C8404.3,2392.2,8402.2,2394.3,8399.5,2394.3z"/>
<path class="st0" d="M7692.8,2462.1h-80.7c-2.7,0-4.8-2.2-4.8-4.8c0-2.7,2.2-4.8,4.8-4.8h75.8v-58.1h-143.6c-2.7,0-4.8-2.2-4.8-4.8
	c0-2.7,2.2-4.8,4.8-4.8h148.4c2.7,0,4.8,2.2,4.8,4.8v67.8C7697.6,2459.9,7695.5,2462.1,7692.8,2462.1z"/>
<path class="st0" d="M8418.8,72.6l-19.4,6.5v490.5l19.4,22.6V72.6z M8418.8,592.1l-19.4,45.2v1752.2l19.4,16.1V592.1z
	 M8444.6,2434.7l22.6,22.6V79.1l-22.6-16.1l-25.8,9.7v2333L8444.6,2434.7z"/>
<path class="st0" d="M8399.5,2394.3c-2.7,0-4.8-2.2-4.8-4.8V637.3c0-2.7,2.2-4.8,4.8-4.8c2.7,0,4.8,2.2,4.8,4.8v1752.2
	C8404.3,2392.2,8402.2,2394.3,8399.5,2394.3z"/>
<path class="st0" d="M8467.2,2462.1c-2.7,0-4.8-2.2-4.8-4.8V79.1c0-2.7,2.2-4.8,4.8-4.8c2.7,0,4.8,2.2,4.8,4.8v2378.2
	C8472.1,2459.9,8469.9,2462.1,8467.2,2462.1z"/>
<path class="st0" d="M8399.5,574.4c-2.7,0-4.8-2.2-4.8-4.8V79.1c0-2.7,2.2-4.8,4.8-4.8c2.7,0,4.8,2.2,4.8,4.8v490.5
	C8404.3,572.2,8402.2,574.4,8399.5,574.4z"/>
<path class="st0" d="M8318.8,2460.5c-1.8,0-3.2-1.4-3.2-3.2v-67.8c0-1.8,1.4-3.2,3.2-3.2c1.8,0,3.2,1.4,3.2,3.2v67.8
	C8322,2459,8320.6,2460.5,8318.8,2460.5z"/>
<path class="st0" d="M7692.8,2460.5c-1.8,0-3.2-1.4-3.2-3.2v-67.8c0-1.8,1.4-3.2,3.2-3.2s3.2,1.4,3.2,3.2v67.8
	C7696,2459,7694.6,2460.5,7692.8,2460.5z"/>
<path class="st0" d="M5166.2,1721.5c-1.8,0-3.2-1.4-3.2-3.2v-154.9c0-1.8,1.4-3.2,3.2-3.2s3.2,1.4,3.2,3.2v154.9
	C5169.4,1720.1,5168,1721.5,5166.2,1721.5z"/>
<polygon class="st0" points="5256.5,62.9 5233.9,79.1 5233.9,1492.4 5256.5,1511.8 5301.7,1492.4 5301.7,79.1 "/>
<path class="st0" d="M5301.7,1497.2c-2.7,0-4.8-2.2-4.8-4.8V79.1c0-2.7,2.2-4.8,4.8-4.8s4.8,2.2,4.8,4.8v1413.3
	C5306.5,1495.1,5304.4,1497.2,5301.7,1497.2z"/>
<path class="st0" d="M5233.9,1497.2c-2.7,0-4.8-2.2-4.8-4.8V79.1c0-2.7,2.2-4.8,4.8-4.8c2.7,0,4.8,2.2,4.8,4.8v1413.3
	C5238.8,1495.1,5236.6,1497.2,5233.9,1497.2z"/>
<path class="st0" d="M8318.8,2460.5h-626c-1.8,0-3.2-1.4-3.2-3.2c0-1.8,1.4-3.2,3.2-3.2h626c1.8,0,3.2,1.4,3.2,3.2
	C8322,2459,8320.6,2460.5,8318.8,2460.5z"/>
<path class="st0" d="M8754.4,5637.3c-0.9,0-1.8-0.2-2.5-0.7l-167.8-103.3c-1.4-0.9-2.3-2.4-2.3-4.1s0.9-3.2,2.3-4.1l167.8-103.3
	c1.5-0.9,3.4-1,4.9-0.1c1.5,0.9,2.5,2.5,2.5,4.2v206.5c0,1.8-0.9,3.4-2.5,4.2C8756.1,5637.1,8755.2,5637.3,8754.4,5637.3z
	 M8595.9,5529.2l153.7,94.6v-189.2L8595.9,5529.2z"/>
<polygon class="st2" points="8586.6,5529.2 8754.4,5425.9 8754.4,5632.5 "/>
<path class="st0" d="M8467.2,5887.4c-1.8,0-3.2-1.4-3.2-3.2v-706.7c0-1.8,1.4-3.2,3.2-3.2c1.8,0,3.2,1.4,3.2,3.2v706.7
	C8470.5,5885.9,8469,5887.4,8467.2,5887.4z"/>
<path class="st0" d="M13184.9,627.6h-64.5c-1.8,0-3.2-1.4-3.2-3.2c0-1.8,1.4-3.2,3.2-3.2h64.5c1.8,0,3.2,1.4,3.2,3.2
	C13188.1,626.2,13186.7,627.6,13184.9,627.6z"/>
<path class="st0" d="M13184.9,4451.4h-64.5c-1.8,0-3.2-1.4-3.2-3.2s1.4-3.2,3.2-3.2h64.5c1.8,0,3.2,1.4,3.2,3.2
	S13186.7,4451.4,13184.9,4451.4z"/>
<path class="st0" d="M5282.3,6000.3h-629.2c-1.8,0-3.2-1.4-3.2-3.2s1.4-3.2,3.2-3.2h629.2c1.8,0,3.2,1.4,3.2,3.2
	S5284.1,6000.3,5282.3,6000.3z"/>
<path class="st0" d="M5282.3,6106.8h-629.2c-1.8,0-3.2-1.4-3.2-3.2s1.4-3.2,3.2-3.2h629.2c1.8,0,3.2,1.4,3.2,3.2
	S5284.1,6106.8,5282.3,6106.8z"/>
<path class="st0" d="M6611.8,2450.8h-561.5c-1.8,0-3.2-1.4-3.2-3.2s1.4-3.2,3.2-3.2h561.5c1.8,0,3.2,1.4,3.2,3.2
	S6613.6,2450.8,6611.8,2450.8z"/>
<path class="st0" d="M6611.8,2402.4h-561.5c-1.8,0-3.2-1.4-3.2-3.2s1.4-3.2,3.2-3.2h561.5c1.8,0,3.2,1.4,3.2,3.2
	S6613.6,2402.4,6611.8,2402.4z"/>
<path class="st0" d="M6689.2,2466.9h-77.4c-1.8,0-3.2-1.4-3.2-3.2V2383c0-1.8,1.4-3.2,3.2-3.2h77.4c1.8,0,3.2,1.4,3.2,3.2v80.7
	C6692.5,2465.5,6691,2466.9,6689.2,2466.9z M6615,2460.5h71v-74.2h-71V2460.5z"/>
<path class="st0" d="M5072.6,1937.7c-1.3,0-2.5-0.8-3-2.1l-154.9-416.3c-0.6-1.7,0.2-3.5,1.9-4.1c1.7-0.6,3.5,0.2,4.1,1.9l154,414
	l36.3-3c1.8-0.4,3.3,1.2,3.5,2.9c0.1,1.8-1.2,3.3-3,3.5l-38.7,3.2C5072.8,1937.7,5072.7,1937.7,5072.6,1937.7z"/>
<path class="st0" d="M5150,1947.4c-0.3,0-0.6,0-0.9-0.1l-35.5-9.7c-1.7-0.5-2.7-2.3-2.3-4c0.5-1.7,2.2-2.8,4-2.3l35.5,9.7
	c1.7,0.5,2.7,2.3,2.3,4C5152.8,1946.5,5151.5,1947.4,5150,1947.4z"/>
<path class="st0" d="M5150,1966.8c-0.2,0-0.5,0-0.8-0.1c-1.7-0.4-2.8-2.2-2.4-3.9l2.9-11.8l-2.7-5.4c-0.8-1.6-0.1-3.5,1.4-4.3
	c1.6-0.8,3.5-0.2,4.3,1.4l3.2,6.5l0.2,2.2l-3.2,12.9C5152.8,1965.8,5151.5,1966.8,5150,1966.8z"/>
<path class="st0" d="M5114.5,1976.4c-1.5,0-2.9-1.1-3.2-2.7c-0.3-1.8,0.9-3.4,2.7-3.7l19.4-3.2l15.5-6.2c1.7-0.7,3.5,0.2,4.2,1.8
	c0.7,1.7-0.1,3.5-1.8,4.2l-16.1,6.4l-20,3.4C5114.9,1976.4,5114.7,1976.4,5114.5,1976.4z"/>
<path class="st0" d="M5114.5,1979.7h-67.8c-1.8,0-3.2-1.4-3.2-3.2s1.4-3.2,3.2-3.2h67.8c1.8,0,3.2,1.4,3.2,3.2
	S5116.3,1979.7,5114.5,1979.7z"/>
<path class="st0" d="M5011.3,1992.6c-1.3,0-2.5-0.8-3-2c-0.7-1.7,0.1-3.5,1.8-4.2l16.1-6.5l20-3.4c1.7-0.2,3.4,0.9,3.7,2.7
	c0.3,1.8-0.9,3.4-2.7,3.7l-19.4,3.2l-15.5,6.3C5012.1,1992.5,5011.7,1992.6,5011.3,1992.6z"/>
<path class="st0" d="M5011.3,2008.7c-0.8,0-1.7-0.3-2.3-0.9l-6.5-6.5l-0.8-3.3l3.2-9.7c0.6-1.7,2.4-2.6,4.1-2c1.7,0.6,2.6,2.4,2,4.1
	l-2.6,7.8l5.1,5c1.3,1.3,1.3,3.3,0,4.6C5012.9,2008.4,5012.1,2008.7,5011.3,2008.7z"/>
<path class="st0" d="M5046.8,2021.6c-0.3,0-0.6,0-0.9-0.1l-35.5-9.7c-1.7-0.5-2.7-2.3-2.3-4c0.5-1.7,2.2-2.8,4-2.3l35.5,9.7
	c1.7,0.5,2.7,2.3,2.3,4C5049.5,2020.7,5048.2,2021.6,5046.8,2021.6z"/>
<path class="st0" d="M5256.5,2437.9c-1.3,0-2.6-0.8-3-2.1l-150.9-414.1h-55.8c-1.8,0-3.2-1.4-3.2-3.2s1.4-3.2,3.2-3.2h58.1
	c1.4,0,2.6,0.8,3,2.1l151.7,416.3c0.6,1.7-0.2,3.5-1.9,4.1C5257.3,2437.8,5256.9,2437.9,5256.5,2437.9z"/>
<path class="st0" d="M5246.8,1937.7c-1.3,0-2.5-0.8-3-2.1l-158.1-416.3c-0.6-1.7,0.2-3.5,1.9-4.2c1.6-0.6,3.5,0.2,4.2,1.9l157.2,414
	l36.3-3c1.9-0.4,3.3,1.2,3.5,2.9s-1.2,3.3-3,3.5l-38.7,3.2C5247,1937.7,5246.9,1937.7,5246.8,1937.7z"/>
<path class="st0" d="M5321.1,1947.4c-0.3,0-0.6,0-0.9-0.1l-35.5-9.7c-1.7-0.5-2.7-2.3-2.3-4c0.5-1.7,2.2-2.8,4-2.3l35.5,9.7
	c1.7,0.5,2.7,2.3,2.3,4C5323.8,1946.5,5322.5,1947.4,5321.1,1947.4z"/>
<path class="st0" d="M5321.1,1966.8c-0.3,0-0.5,0-0.8-0.1c-1.7-0.4-2.8-2.2-2.3-3.9l2.9-11.8l-2.7-5.4c-0.8-1.6-0.1-3.5,1.4-4.3
	c1.5-0.8,3.5-0.2,4.3,1.4l3.2,6.5l0.2,2.2l-3.2,12.9C5323.8,1965.8,5322.5,1966.8,5321.1,1966.8z"/>
<path class="st0" d="M5285.6,1976.4c-1.5,0-2.9-1.1-3.2-2.7c-0.3-1.8,0.9-3.4,2.7-3.7l19.4-3.2l15.5-6.2c1.7-0.7,3.5,0.2,4.2,1.8
	c0.7,1.7-0.1,3.5-1.8,4.2l-16.1,6.4l-20,3.4C5285.9,1976.4,5285.7,1976.4,5285.6,1976.4z"/>
<path class="st0" d="M5285.6,1979.7h-67.8c-1.8,0-3.2-1.4-3.2-3.2s1.4-3.2,3.2-3.2h67.8c1.8,0,3.2,1.4,3.2,3.2
	S5287.4,1979.7,5285.6,1979.7z"/>
<path class="st0" d="M5182.3,1992.6c-1.3,0-2.5-0.8-3-2c-0.7-1.7,0.1-3.5,1.8-4.2l16.1-6.5l20-3.4c1.8-0.2,3.4,0.9,3.7,2.7
	c0.3,1.8-0.9,3.4-2.7,3.7l-19.4,3.2l-15.5,6.3C5183.1,1992.5,5182.7,1992.6,5182.3,1992.6z"/>
<path class="st0" d="M5185.5,2008.7c-0.8,0-1.7-0.3-2.3-0.9l-6.5-6.5l-0.8-3.3l3.2-9.7c0.6-1.7,2.4-2.6,4.1-2c1.7,0.6,2.6,2.4,2,4.1
	l-2.6,7.8l5.1,5c1.3,1.3,1.3,3.3,0,4.6C5187.2,2008.4,5186.4,2008.7,5185.5,2008.7z"/>
<path class="st0" d="M5217.8,2021.6c-0.3,0-0.6,0-0.9-0.1l-35.5-9.7c-1.7-0.5-2.7-2.3-2.3-4c0.5-1.7,2.2-2.8,4-2.3l35.5,9.7
	c1.7,0.5,2.7,2.3,2.3,4C5220.5,2020.7,5219.2,2021.6,5217.8,2021.6z"/>
<path class="st0" d="M5430.8,2437.9c-1.3,0-2.6-0.8-3-2.1l-150.9-414.1h-59c-1.8,0-3.2-1.4-3.2-3.2s1.4-3.2,3.2-3.2h61.3
	c1.4,0,2.6,0.8,3,2.1l151.7,416.3c0.6,1.7-0.2,3.5-1.9,4.1C5431.5,2437.8,5431.2,2437.9,5430.8,2437.9z"/>
<path class="st0" d="M8005.8,2576.6c-0.8,0-1.7-0.3-2.3-0.9l-80.7-80.7c-1.3-1.3-1.3-3.3,0-4.6c1.3-1.3,3.3-1.3,4.6,0l75.2,75.2
	v-227.8c0-1.8,1.4-3.2,3.2-3.2s3.2,1.4,3.2,3.2v235.6c0,1.3-0.8,2.5-2,3C8006.6,2576.6,8006.2,2576.6,8005.8,2576.6z"/>
<path class="st0" d="M8005.8,2576.6c-0.8,0-1.7-0.3-2.3-1c-1.2-1.3-1.2-3.3,0.1-4.6l83.9-80.7c1.3-1.2,3.3-1.2,4.6,0.1
	c1.2,1.3,1.2,3.3-0.1,4.6l-83.9,80.7C8007.4,2576.3,8006.6,2576.6,8005.8,2576.6z"/>
<g>
	<path class="st0" d="M7947.9,2295.4c-1.4-9.2-2.4-20.2-2.4-32.2c0-21.8,5.1-37.3,14.6-47.6c9.6-10.5,23.2-16.6,42.2-16.6
		c19.2,0,34.9,5.9,45.7,16.9c11,11,16.9,29.1,16.9,51.9c0,10.8-0.5,19.9-1.4,27.5H7947.9z M8051.8,2280.3c0.7-3.8,0.9-9.4,0.9-15.3
		c0-32.4-18.1-50-49.8-50c-27.7-0.2-45.3,15.5-45.3,47.6c0,7.8,0.7,13.8,1.6,17.8H8051.8z"/>
	<path class="st0" d="M8063.8,2179.7h-117.4v-16.6l59.4-37.6c13.8-8.7,26.1-15.5,38.2-21.1l-0.2-0.3c-15.7,1.4-30,1.7-48.3,1.7
		h-49.1v-14.3h117.4v15.3l-59.6,37.3c-13.1,8.2-26.5,16-39.2,22l0.2,0.5c14.8-0.9,28.9-1.2,48.4-1.2h50.2V2179.7z"/>
</g>
<g>
	<path class="st0" d="M5648,4581.7c3.9,7.8,7.8,23.5,7.8,43.7c0,46.6-29.4,81.7-83.6,81.7c-51.7,0-86.8-35.1-86.8-86.3
		c0-20.6,4.4-33.6,7.4-39.2l17.4,5.1c-3.9,8.1-6.9,19.6-6.9,33.4c0,38.7,24.8,64.5,68.2,64.5c40.5,0,66.5-23.3,66.5-63.5
		c0-13-2.7-26.2-6.9-34.8L5648,4581.7z"/>
	<path class="st0" d="M5601.4,4529.7l52,17.2v22.1l-165.3-56.2v-25.7l165.3-56.4v22.8l-52,17.7V4529.7z M5584.7,4475.5l-47.6,16.2
		c-10.8,3.7-20.6,6.1-30.2,8.6v0.5c9.8,2.5,19.9,5.2,29.9,8.3l47.8,16.2V4475.5z"/>
	<path class="st0" d="M5627.4,4409.8c5.9-9.6,10.8-23.5,10.8-38.3c0-21.8-11.5-34.6-28.2-34.6c-15.4,0-24.3,8.8-32.9,31.1
		c-9.6,27-23.5,43.7-46.8,43.7c-25.7,0-44.9-21.3-44.9-53.5c0-16.9,3.9-29.2,8.1-36.5l17.4,5.9c-2.9,5.4-7.8,16.4-7.8,31.4
		c0,22.6,13.5,31.1,24.8,31.1c15.4,0,23.1-10.1,31.9-32.9c10.8-28,24.3-42.2,48.6-42.2c25.5,0,47.6,18.9,47.6,57.9
		c0,15.9-4.7,33.4-10.5,42.2L5627.4,4409.8z"/>
	<path class="st0" d="M5488.1,4261.5h97.8c37,0,52.7-16.4,52.7-38.5c0-24.5-16.2-40.2-52.7-40.2h-97.8v-21.6h96.4
		c50.8,0,71.6,26.7,71.6,62.5c0,33.8-19.4,59.3-70.6,59.3h-97.4V4261.5z"/>
	<path class="st0" d="M5601.4,4100.3l52,17.2v22.1l-165.3-56.2v-25.7l165.3-56.4v22.8l-52,17.7V4100.3z M5584.7,4046.1l-47.6,16.2
		c-10.8,3.7-20.6,6.1-30.2,8.6v0.5c9.8,2.5,19.9,5.2,29.9,8.3l47.8,16.2V4046.1z"/>
	<path class="st0" d="M5488.1,3979.9v-21.3h147.4V3888h17.9v92H5488.1z"/>
</g>
<g>
	<path class="st0" d="M5764.5,4642.4c-2-13-3.4-28.4-3.4-45.4c0-30.7,7.1-52.5,20.6-66.9c13.5-14.7,32.6-23.3,59.3-23.3
		c27,0,49,8.3,64.2,23.8c15.4,15.5,23.8,41,23.8,73.1c0,15.2-0.7,28-2,38.7H5764.5z M5910.7,4621.1c1-5.4,1.2-13.2,1.2-21.6
		c0-45.6-25.5-70.4-70.1-70.4c-39-0.2-63.8,21.8-63.8,66.9c0,11,1,19.4,2.2,25H5910.7z"/>
	<path class="st0" d="M5762.3,4458.2h165.3v21.3h-165.3V4458.2z"/>
	<path class="st0" d="M5927.6,4421.7h-165.3v-23.3l83.6-53c19.4-12.3,36.8-21.8,53.7-29.7l-0.2-0.5c-22.1,2-42.2,2.5-67.9,2.5h-69.2
		v-20.1h165.3v21.6l-83.9,52.5c-18.4,11.5-37.3,22.6-55.2,30.9l0.2,0.7c20.8-1.2,40.7-1.7,68.2-1.7h70.6V4421.7z"/>
	<path class="st0" d="M5762.3,4237.3h165.3v21.3h-165.3V4237.3z"/>
	<path class="st0" d="M5927.6,4200.7h-165.3v-23.3l83.6-53c19.4-12.3,36.8-21.8,53.7-29.7l-0.2-0.5c-22.1,2-42.2,2.5-67.9,2.5h-69.2
		v-20.1h165.3v21.6l-83.9,52.5c-18.4,11.5-37.3,22.6-55.2,30.9l0.2,0.7c20.8-1.2,40.7-1.7,68.2-1.7h70.6V4200.7z"/>
	<path class="st0" d="M5920.2,3914c3.4,9.6,9.1,28.4,9.1,50.8c0,25-6.4,45.6-21.8,61.8c-13.7,14.2-35.8,23.1-61.6,23.1
		c-49.3-0.2-85.3-34.1-85.3-89.5c0-19.1,4.2-34.1,7.6-41.2l17.4,5.2c-3.9,8.8-7.1,19.9-7.1,36.5c0,40.2,25,66.5,66.5,66.5
		c41.9,0,66.7-25.3,66.7-63.8c0-14-2-23.5-4.4-28.4H5858v33.6h-17.2V3914H5920.2z"/>
</g>
<g>
	<path class="st0" d="M6065.9,4661.2v0.5l15,27.7l-16.4,4.2l-18.6-34.8v-18.4h159.4v20.8H6065.9z"/>
	<path class="st0" d="M6063.9,4489.3v60.8l41,6.1c-0.5-3.7-1-7.1-1-13c0-12.3,2.7-24.5,8.6-34.3c7.1-12.5,20.8-22.8,41-22.8
		c31.1,0,54.4,24.8,54.4,59.3c0,17.4-4.9,32.1-9.8,39.7l-16.4-5.4c3.9-6.6,8.8-19.6,8.8-34.1c0-20.4-13.2-37.8-34.6-37.8
		c-20.6,0.2-35.3,14-35.3,45.9c0,9.1,1,16.2,1.7,22.1l-76.5-10.3v-76.3H6063.9z"/>
	<path class="st0" d="M6037.2,4435.9l58.9,4.2v13.2l-58.9,3.9V4435.9z"/>
	<path class="st0" d="M6205.2,4314.5l-36.5,21.1c-14,8.6-23.1,14-32.6,19.1v0.5c9.6,4.7,18.4,9.3,32.9,17.9l36.3,19.9v24.5
		l-83.6-50.5l-81.7,48.6v-24.8l38.7-21.8c10.8-6.1,19.1-10.8,28-15.2v-0.7c-9.8-4.7-17.4-8.8-28-15l-38.7-22.6v-24.5l80.4,50.3
		l84.8-51.5V4314.5z"/>
	<path class="st0" d="M6065.9,4224v0.5l15,27.7l-16.4,4.2l-18.6-34.8v-18.4h159.4v20.8H6065.9z"/>
	<path class="st0" d="M6205.2,4083.2h-43.4v74.1h-14.2l-101.8-71.1v-23.3h99.1v-22.3h16.9v22.3h43.4V4083.2z M6144.8,4083.2h-53.2
		c-8.3,0-16.7-0.2-25-0.7v0.7c9.3,4.9,16.2,8.8,23.5,13.2l54.2,39h0.5V4083.2z"/>
	<path class="st0" d="M6037.2,4003.5l58.9,4.2v13.2l-58.9,3.9V4003.5z"/>
	<path class="st0" d="M6063.9,3880.4v60.8l41,6.1c-0.5-3.7-1-7.1-1-13c0-12.3,2.7-24.5,8.6-34.3c7.1-12.5,20.8-22.8,41-22.8
		c31.1,0,54.4,24.8,54.4,59.3c0,17.4-4.9,32.1-9.8,39.7l-16.4-5.4c3.9-6.6,8.8-19.6,8.8-34.1c0-20.4-13.2-37.8-34.6-37.8
		c-20.6,0.2-35.3,14-35.3,45.9c0,9.1,1,16.2,1.7,22.1l-76.5-10.3v-76.3H6063.9z"/>
	<path class="st0" d="M6037.2,3795.3l58.9,4.2v13l-58.9,4.2V3795.3z M6037.2,3831.9l58.9,4.2v13.2l-58.9,3.9V3831.9z"/>
</g>
<g>
	<path class="st0" d="M7124.1,5739.5v-89h17.9v67.7h54.9v-62.5h17.7v62.5h74.8v21.3H7124.1z"/>
	<path class="st0" d="M7205,5480.3c56.9,0,87.1,34.6,87.1,76.8c0,43.7-33.8,74.3-83.9,74.3c-52.5,0-86.8-32.6-86.8-76.8
		C7121.4,5509.5,7156,5480.3,7205,5480.3z M7207.7,5608.5c35.3,0,66.9-19.1,66.9-52.7c0-33.8-31.1-53-68.7-53
		c-32.9,0-67.2,17.2-67.2,52.7C7138.8,5590.9,7171.4,5608.5,7207.7,5608.5z"/>
	<path class="st0" d="M7289.4,5414.1h-70.1l-95.1,52.2V5442l45.6-23.3c12.5-6.4,22.6-11.3,34.1-16.4v-0.5
		c-10.8-4.7-21.6-10.3-34.1-16.7l-45.6-23.8v-24.3l94.9,55.4h70.4V5414.1z"/>
	<path class="st0" d="M7211.9,5235.5v64.2h59.6v-71.6h17.9v92.9h-165.3v-89.3h17.9v67.9h52.2v-64.2H7211.9z"/>
	<path class="st0" d="M7126.3,5198.3c-2.2-10.8-3.4-26.2-3.4-41c0-22.8,4.2-37.5,13.5-47.8c7.4-8.3,18.6-13,31.4-13
		c21.8,0,36.3,13.7,42.2,31.1h0.7c4.4-12.8,16.2-20.4,33.4-24.3c23.1-5.4,39-9.3,45.4-12.8v22.1c-4.7,2.7-18.9,6.4-39.5,11
		c-22.8,4.9-31.4,13.7-32.1,33.1v20.1h71.6v21.3H7126.3z M7201.6,5176.9v-21.8c0-22.8-12.5-37.3-31.4-37.3
		c-21.3,0-30.7,15.5-30.9,38c0,10.3,1,17.7,2,21.1H7201.6z"/>
</g>
<g>
	<path class="st0" d="M5983.8,1412.3c-1.7-10.3-3.2-23.8-3.2-41c0-21.1,4.9-36.5,13.7-46.3c7.8-9.1,19.9-14.5,34.6-14.5
		c15,0,26.7,4.4,35.3,12.8c12,11.3,18.1,29.7,18.1,50.5c0,6.4-0.2,12.3-1.5,17.2h66.2v21.3H5983.8z M6063.5,1391
		c1.2-4.7,1.7-10.5,1.7-17.7c0-25.7-12.5-41.4-35.3-41.4c-21.8,0-32.4,15.4-32.4,39c0,9.3,0.7,16.4,1.7,20.1H6063.5z"/>
	<path class="st0" d="M6062.7,1137.4c56.9,0,87.1,34.6,87.1,76.8c0,43.7-33.8,74.3-83.9,74.3c-52.5,0-86.8-32.6-86.8-76.8
		C5979.1,1166.6,6013.7,1137.4,6062.7,1137.4z M6065.4,1265.6c35.3,0,66.9-19.1,66.9-52.7c0-33.8-31.1-53-68.7-53
		c-32.9,0-67.2,17.2-67.2,52.7C5996.5,1248,6029.1,1265.6,6065.4,1265.6z"/>
	<path class="st0" d="M6147.1,1090.5l-165.3,41.9v-22.6l83.6-19.6c20.6-4.9,41.2-9.3,57.1-12.3v-0.5c-16.4-2.7-36-7.8-57.4-13.5
		l-83.4-22.1v-22.3l83.9-20.1c19.6-4.7,39.2-9.1,56.6-11.5v-0.5c-18.1-3.4-36.5-8.1-57.1-13.2l-83.4-21.8v-21.8l165.3,46.8v22.3
		l-86.1,20.8c-21.1,5.1-37.3,8.6-54,10.8v0.5c16.4,2.9,32.6,6.6,54,12.8l86.1,23.5V1090.5z"/>
	<path class="st0" d="M5984,906.1c-2-13-3.4-28.4-3.4-45.4c0-30.7,7.1-52.5,20.6-66.9c13.5-14.7,32.6-23.3,59.3-23.3
		c27,0,49,8.3,64.2,23.8c15.4,15.4,23.8,41,23.8,73.1c0,15.2-0.7,28-2,38.7H5984z M6130.2,884.8c1-5.4,1.2-13.2,1.2-21.6
		c0-45.6-25.5-70.4-70.1-70.4c-39-0.2-63.8,21.8-63.8,66.9c0,11,1,19.4,2.2,25H6130.2z"/>
	<path class="st0" d="M6069.6,660.2v64.3h59.6v-71.6h17.9v92.9h-165.3v-89.3h17.9v67.9h52.2v-64.3H6069.6z"/>
	<path class="st0" d="M5984,627.5c-2.2-10.8-3.4-26.2-3.4-41c0-22.8,4.2-37.5,13.5-47.8c7.4-8.3,18.6-13,31.4-13
		c21.8,0,36.3,13.7,42.2,31.1h0.7c4.4-12.8,16.2-20.4,33.4-24.3c23.1-5.4,39-9.3,45.4-12.8V542c-4.7,2.7-18.9,6.4-39.5,11
		c-22.8,4.9-31.4,13.7-32.1,33.1v20.1h71.6v21.3H5984z M6059.3,606.2v-21.8c0-22.8-12.5-37.3-31.4-37.3c-21.3,0-30.7,15.4-30.9,38
		c0,10.3,1,17.7,2,21.1H6059.3z"/>
</g>
<g>
	<path class="st0" d="M6258.2,1412.3c-2.2-10.8-3.4-26.2-3.4-41c0-22.8,4.2-37.5,13.5-47.8c7.4-8.3,18.6-13,31.4-13
		c21.8,0,36.3,13.7,42.2,31.1h0.7c4.4-12.8,16.2-20.4,33.4-24.3c23.1-5.4,39-9.3,45.4-12.8v22.1c-4.7,2.7-18.9,6.4-39.5,11
		c-22.8,4.9-31.4,13.7-32.1,33.1v20.1h71.6v21.3H6258.2z M6333.5,1391v-21.8c0-22.8-12.5-37.3-31.4-37.3c-21.3,0-30.7,15.4-30.9,38
		c0,10.3,1,17.7,2,21.1H6333.5z"/>
	<path class="st0" d="M6336.9,1140.6c56.9,0,87.1,34.6,87.1,76.8c0,43.7-33.8,74.3-83.9,74.3c-52.5,0-86.8-32.6-86.8-76.8
		C6253.3,1169.8,6287.9,1140.6,6336.9,1140.6z M6339.6,1268.8c35.3,0,66.9-19.1,66.9-52.7c0-33.8-31.1-53-68.7-53
		c-32.9,0-67.2,17.2-67.2,52.7C6270.7,1251.2,6303.3,1268.8,6339.6,1268.8z"/>
	<path class="st0" d="M6336.9,972.1c56.9,0,87.1,34.6,87.1,76.8c0,43.7-33.8,74.3-83.9,74.3c-52.5,0-86.8-32.6-86.8-76.8
		C6253.3,1001.3,6287.9,972.1,6336.9,972.1z M6339.6,1100.4c35.3,0,66.9-19.1,66.9-52.7c0-33.8-31.1-53-68.7-53
		c-32.9,0-67.2,17.2-67.2,52.7C6270.7,1082.7,6303.3,1100.4,6339.6,1100.4z"/>
	<path class="st0" d="M6348.7,808c-23.1,1.2-50.8,2.7-71.4,2.5v0.7c19.4,5.6,40,12.5,62.8,20.8l80.2,29.2v16.2l-78.7,26.7
		c-23.3,7.8-44.6,14.5-64.3,19.1v0.5c20.6,0.5,48.3,1.7,73.1,3.2l70.9,4.4v20.4L6256,940.2V913l79.9-28.2
		c20.4-6.9,38.5-12.5,55.7-16.7v-0.7c-16.7-4.2-34.8-10.1-55.7-17.4l-79.9-29.4v-27.2l165.3-10.3v20.8L6348.7,808z"/>
</g>
<g>
	<path class="st0" d="M10452.9,3058.9v50.3h-18.1v-122.4h18.1v50.5h147.1v21.6H10452.9z"/>
	<path class="st0" d="M10600.1,2939.2l-165.3,41.9v-22.6l83.6-19.6c20.6-4.9,41.2-9.3,57.1-12.3v-0.5c-16.4-2.7-36-7.8-57.4-13.5
		l-83.4-22.1v-22.3l83.9-20.1c19.6-4.7,39.2-9.1,56.6-11.5v-0.5c-18.1-3.4-36.5-8.1-57.1-13.2l-83.4-21.8v-21.8l165.3,46.8v22.3
		l-86.1,20.8c-21.1,5.1-37.3,8.6-53.9,10.8v0.5c16.4,2.9,32.6,6.6,53.9,12.8l86.1,23.5V2939.2z"/>
	<path class="st0" d="M10515.7,2616c56.9,0,87.1,34.6,87.1,76.8c0,43.7-33.8,74.3-83.9,74.3c-52.5,0-86.8-32.6-86.8-76.8
		C10432.1,2645.2,10466.7,2616,10515.7,2616z M10518.4,2744.3c35.3,0,66.9-19.1,66.9-52.7c0-33.8-31.1-53-68.7-53
		c-32.9,0-67.2,17.2-67.2,52.7C10449.5,2726.6,10482.1,2744.3,10518.4,2744.3z"/>
	<path class="st0" d="M10525.8,2541.9h15.9v60.6h-15.9V2541.9z"/>
	<path class="st0" d="M10594.7,2399c3.9,7.8,7.8,23.5,7.8,43.7c0,46.6-29.4,81.7-83.6,81.7c-51.7,0-86.8-35.1-86.8-86.3
		c0-20.6,4.4-33.6,7.4-39.2l17.4,5.1c-3.9,8.1-6.9,19.6-6.9,33.4c0,38.7,24.8,64.5,68.2,64.5c40.5,0,66.5-23.3,66.5-63.5
		c0-13-2.7-26.2-6.9-34.8L10594.7,2399z"/>
	<path class="st0" d="M10548.1,2347l52,17.2v22.1l-165.3-56.2v-25.7l165.3-56.4v22.8l-52,17.7V2347z M10531.4,2292.8l-47.6,16.2
		c-10.8,3.7-20.6,6.1-30.2,8.6v0.5c9.8,2.5,19.9,5.1,29.9,8.3l47.8,16.2V2292.8z"/>
	<path class="st0" d="M10437,2231.5c-2.2-10.8-3.4-26.2-3.4-41c0-22.8,4.2-37.5,13.5-47.8c7.4-8.3,18.6-13,31.4-13
		c21.8,0,36.3,13.7,42.2,31.1h0.7c4.4-12.8,16.2-20.4,33.4-24.3c23.1-5.4,39-9.3,45.4-12.8v22.1c-4.7,2.7-18.9,6.4-39.5,11
		c-22.8,4.9-31.4,13.7-32.1,33.1v20.1h71.6v21.3H10437z M10512.3,2210.1v-21.8c0-22.8-12.5-37.3-31.4-37.3
		c-21.3,0-30.7,15.4-30.9,38c0,10.3,1,17.7,2,21.1H10512.3z"/>
</g>
<g>
	<path class="st0" d="M10866.9,2899.9c3.4,9.6,9.1,28.4,9.1,50.8c0,25-6.4,45.6-21.8,61.8c-13.7,14.2-35.8,23.1-61.6,23.1
		c-49.3-0.2-85.3-34.1-85.3-89.5c0-19.1,4.2-34.1,7.6-41.2l17.4,5.1c-3.9,8.8-7.1,19.9-7.1,36.5c0,40.2,25,66.5,66.5,66.5
		c41.9,0,66.7-25.3,66.7-63.8c0-14-2-23.5-4.4-28.4h-49.3v33.6h-17.2v-54.4H10866.9z"/>
	<path class="st0" d="M10822.3,2841l52,17.2v22.1l-165.3-56.2v-25.7l165.3-56.4v22.8l-52,17.7V2841z M10805.6,2786.8l-47.6,16.2
		c-10.8,3.7-20.6,6.1-30.2,8.6v0.5c9.8,2.5,19.9,5.1,29.9,8.3l47.8,16.2V2786.8z"/>
	<path class="st0" d="M10711.2,2716c-2.2-10.8-3.4-26.2-3.4-41c0-22.8,4.2-37.5,13.5-47.8c7.4-8.3,18.6-13,31.4-13
		c21.8,0,36.3,13.7,42.2,31.1h0.7c4.4-12.8,16.2-20.4,33.4-24.3c23.1-5.4,39-9.3,45.4-12.8v22.1c-4.7,2.7-18.9,6.4-39.5,11
		c-22.8,4.9-31.4,13.7-32.1,33.1v20.1h71.6v21.3H10711.2z M10786.5,2694.6v-21.8c0-22.8-12.5-37.3-31.4-37.3
		c-21.3,0-30.7,15.4-30.9,38c0,10.3,1,17.7,2,21.1H10786.5z"/>
	<path class="st0" d="M10822.3,2558.8l52,17.2v22.1l-165.3-56.2v-25.7l165.3-56.4v22.8l-52,17.7V2558.8z M10805.6,2504.6l-47.6,16.2
		c-10.8,3.7-20.6,6.1-30.2,8.6v0.5c9.8,2.5,19.9,5.1,29.9,8.3l47.8,16.2V2504.6z"/>
	<path class="st0" d="M10866.9,2310.1c3.4,9.6,9.1,28.4,9.1,50.8c0,25-6.4,45.6-21.8,61.8c-13.7,14.2-35.8,23.1-61.6,23.1
		c-49.3-0.2-85.3-34.1-85.3-89.5c0-19.1,4.2-34.1,7.6-41.2l17.4,5.1c-3.9,8.8-7.1,19.9-7.1,36.5c0,40.2,25,66.5,66.5,66.5
		c41.9,0,66.7-25.3,66.7-63.8c0-14-2-23.5-4.4-28.4h-49.3v33.6h-17.2v-54.4H10866.9z"/>
	<path class="st0" d="M10796.8,2192.4v64.3h59.6V2185h17.9v92.9H10709v-89.3h17.9v67.9h52.2v-64.3H10796.8z"/>
</g>
<g>
	<path class="st0" d="M11148.6,3178.6h-13.2l-16.4-16.9c-38.7-40.7-59.3-59.1-83.4-59.3c-16.2,0-31.1,7.8-31.1,31.6
		c0,14.5,7.4,26.5,13.5,33.8l-15.2,6.9c-9.3-11-16.2-26.7-16.2-45.1c0-34.3,23.5-48.8,46.3-48.8c29.4,0,53.2,21.3,85.6,54.9
		l11.8,12.8h0.5v-71.6h17.9V3178.6z"/>
	<path class="st0" d="M11067.2,2946.8c54.2,0,84.1,20.1,84.1,55.4c0,31.1-29.2,52.2-81.9,52.7c-53.5,0-82.9-23.1-82.9-55.4
		C10986.5,2965.9,11016.4,2946.8,11067.2,2946.8z M11069.6,3033.4c41.4,0,65-12.8,65-32.4c0-22.1-25.7-32.6-66.5-32.6
		c-39.2,0-65,10.1-65,32.4C11003.2,3019.6,11026.2,3033.4,11069.6,3033.4z"/>
	<path class="st0" d="M10980.6,2901.9l58.9,4.2v13.2l-58.9,3.9V2901.9z"/>
	<path class="st0" d="M11009.3,2829.6v0.5l15,27.7l-16.4,4.2l-18.6-34.8v-18.4h159.4v20.8H11009.3z"/>
	<path class="st0" d="M11067.2,2644.7c54.2,0,84.1,20.1,84.1,55.4c0,31.1-29.2,52.2-81.9,52.7c-53.5,0-82.9-23.1-82.9-55.4
		C10986.5,2663.8,11016.4,2644.7,11067.2,2644.7z M11069.6,2731.3c41.4,0,65-12.8,65-32.4c0-22.1-25.7-32.6-66.5-32.6
		c-39.2,0-65,10.1-65,32.4C11003.2,2717.5,11026.2,2731.3,11069.6,2731.3z"/>
	<path class="st0" d="M10980.6,2565.5l58.9,4.2v13l-58.9,4.2V2565.5z M10980.6,2602l58.9,4.2v13.2l-58.9,3.9V2602z"/>
	<path class="st0" d="M11148.6,2443.8l-36.5,21.1c-14,8.6-23.1,14-32.6,19.1v0.5c9.6,4.7,18.4,9.3,32.9,17.9l36.3,19.9v24.5
		l-83.6-50.5l-81.7,48.6v-24.8l38.7-21.8c10.8-6.1,19.1-10.8,28-15.2v-0.7c-9.8-4.7-17.4-8.8-28-15l-38.7-22.6v-24.5l80.4,50.3
		l84.8-51.5V2443.8z"/>
	<path class="st0" d="M11009.3,2358v0.5l15,27.7l-16.4,4.2l-18.6-34.8v-18.4h159.4v20.8H11009.3z"/>
	<path class="st0" d="M11133.4,2266.5c0.5-4.7,0-10.1-0.7-17.4c-1.7-12.5-6.9-24.3-15.4-33.4c-9.6-10.5-23.5-18.1-42.4-21.1v0.7
		c10.8,8.8,17.2,21.6,17.2,37.5c0,28.7-21.6,47.1-48.8,47.1c-30.2,0-56.6-21.8-56.6-54.4c0-32.6,26.5-52.7,67.2-52.7
		c35.1,0,59.6,11.8,74.8,27.5c12,12.3,19.4,29.2,21.3,46.3c1.2,7.8,1.5,14.7,1.2,19.9H11133.4z M11041.7,2258.7
		c19.9,0,33.8-12,33.8-30.7c0-14.5-7.1-25.7-16.7-31.4c-2-1.2-4.4-2-7.8-2c-27.2,0-48.1,10.1-48.1,32.6
		C11002.9,2245.7,11019.1,2258.7,11041.7,2258.7z"/>
	<path class="st0" d="M10980.6,2135.3l58.9,4.2v13.2l-58.9,3.9V2135.3z"/>
	<path class="st0" d="M11133.4,2097.3c0.5-4.7,0-10.1-0.7-17.4c-1.7-12.5-6.9-24.3-15.4-33.4c-9.6-10.5-23.5-18.1-42.4-21.1v0.7
		c10.8,8.8,17.2,21.6,17.2,37.5c0,28.7-21.6,47.1-48.8,47.1c-30.2,0-56.6-21.8-56.6-54.4c0-32.6,26.5-52.7,67.2-52.7
		c35.1,0,59.6,11.8,74.8,27.5c12,12.3,19.4,29.2,21.3,46.3c1.2,7.8,1.5,14.7,1.2,19.9H11133.4z M11041.7,2089.5
		c19.9,0,33.8-12,33.8-30.7c0-14.5-7.1-25.7-16.7-31.4c-2-1.2-4.4-2-7.8-2c-27.2,0-48.1,10.1-48.1,32.6
		C11002.9,2076.5,11019.1,2089.5,11041.7,2089.5z"/>
	<path class="st0" d="M10980.6,1931.8l58.9,4.2v13l-58.9,4.2V1931.8z M10980.6,1968.3l58.9,4.2v13.2l-58.9,3.9V1968.3z"/>
</g>
<g>
	<path class="st0" d="M7630.8,738.8c2.8,5.6,5.6,16.7,5.6,31c0,33.1-20.9,58-59.4,58c-36.8,0-61.7-24.9-61.7-61.3
		c0-14.6,3.1-23.9,5.2-27.9l12.4,3.7c-2.8,5.8-4.9,13.9-4.9,23.7c0,27.5,17.6,45.8,48.4,45.8c28.8,0,47.2-16.6,47.2-45.1
		c0-9.2-1.9-18.6-4.9-24.7L7630.8,738.8z"/>
	<path class="st0" d="M7517.2,719.2v-15.2h104.7v-50.2h12.7v65.3H7517.2z"/>
	<path class="st0" d="M7574.7,536.6c40.4,0,61.9,24.6,61.9,54.5c0,31-24,52.8-59.6,52.8c-37.3,0-61.7-23.2-61.7-54.5
		C7515.3,557.4,7539.9,536.6,7574.7,536.6z M7576.6,627.8c25.1,0,47.6-13.6,47.6-37.5c0-24-22.1-37.6-48.8-37.6
		c-23.3,0-47.7,12.2-47.7,37.5C7527.7,615.2,7550.8,627.8,7576.6,627.8z"/>
	<path class="st0" d="M7616.2,516.1c4.2-6.8,7.7-16.7,7.7-27.2c0-15.5-8.2-24.6-20-24.6c-11,0-17.3,6.3-23.3,22.1
		c-6.8,19.2-16.7,31-33.3,31c-18.3,0-31.9-15.2-31.9-38c0-12,2.8-20.7,5.8-26l12.4,4.2c-2.1,3.8-5.6,11.7-5.6,22.3
		c0,16,9.6,22.1,17.6,22.1c11,0,16.4-7.1,22.7-23.3c7.7-19.9,17.3-30,34.5-30c18.1,0,33.8,13.4,33.8,41.1c0,11.3-3.3,23.7-7.5,30
		L7616.2,516.1z"/>
	<path class="st0" d="M7579.6,368.3V414h42.3v-50.9h12.7v66h-117.4v-63.4h12.7V414h37.1v-45.7H7579.6z"/>
	<path class="st0" d="M7530.1,322.8v35.7h-12.9v-87h12.9v35.9h104.6v15.3H7530.1z"/>
</g>
<g>
	<path class="st0" d="M4688.5,1137.2l-117.4,29.8v-16l59.4-13.9c14.6-3.5,29.3-6.6,40.6-8.7v-0.3c-11.7-1.9-25.6-5.6-40.8-9.6
		l-59.2-15.7v-15.9l59.6-14.3c13.9-3.3,27.9-6.4,40.3-8.2v-0.3c-12.9-2.4-26-5.8-40.6-9.4l-59.2-15.5v-15.5l117.4,33.3v15.9
		l-61.2,14.8c-15,3.7-26.5,6.1-38.3,7.7v0.3c11.7,2.1,23.2,4.7,38.3,9.1l61.2,16.7V1137.2z"/>
	<path class="st0" d="M4651.6,990.5l36.9,12.2v15.7l-117.4-39.9v-18.3l117.4-40.1v16.2l-36.9,12.5V990.5z M4639.7,951.9l-33.8,11.5
		c-7.7,2.6-14.6,4.4-21.4,6.1v0.3c7,1.7,14.1,3.7,21.3,5.9l34,11.5V951.9z"/>
	<path class="st0" d="M4571.1,901.6v-15.2h104.7v-50.2h12.7v65.3H4571.1z"/>
	<path class="st0" d="M4571.1,819.3v-15.2h56.6v-0.5c-4.5-3.1-8.7-6.3-12.5-9.2l-44.1-35.9v-18.8l49.8,42.5l67.6-45.8v17.9
		l-57.7,38.7l12.9,11.2h44.8v15.2H4571.1z"/>
	<path class="st0" d="M4635.7,686.9h11.3v43h-11.3V686.9z"/>
	<path class="st0" d="M4571.1,653.8h117.4V669h-117.4V653.8z"/>
	<path class="st0" d="M4688.5,626.3h-117.4v-16.6l59.4-37.6c13.8-8.7,26.1-15.5,38.2-21.1l-0.2-0.3c-15.7,1.4-30,1.7-48.3,1.7h-49.1
		v-14.3h117.4v15.3l-59.6,37.3c-13.1,8.2-26.5,16-39.2,22l0.2,0.5c14.8-0.9,28.9-1.2,48.4-1.2h50.2V626.3z"/>
</g>
<g>
	<path class="st0" d="M4769.3,1120.9c-1.2-7.3-2.3-16.9-2.3-29.1c0-15,3.5-26,9.8-32.9c5.6-6.4,14.1-10.3,24.6-10.3
		c10.6,0,19,3.1,25.1,9.1c8.5,8,12.9,21.1,12.9,35.9c0,4.5-0.2,8.7-1,12.2h47v15.2H4769.3z M4826,1105.7c0.9-3.3,1.2-7.5,1.2-12.5
		c0-18.3-8.9-29.4-25.1-29.4c-15.5,0-23,11-23,27.7c0,6.6,0.5,11.7,1.2,14.3H4826z"/>
	<path class="st0" d="M4848.5,1008.7l36.9,12.2v15.7L4768,996.7v-18.3l117.4-40.1v16.2l-36.9,12.5V1008.7z M4836.6,970.2l-33.8,11.5
		c-7.7,2.6-14.6,4.4-21.4,6.1v0.3c7,1.7,14.1,3.7,21.3,5.9l34,11.5V970.2z"/>
	<path class="st0" d="M4885.4,921.4H4768v-16.6l59.4-37.6c13.8-8.7,26.1-15.5,38.2-21.1l-0.2-0.3c-15.7,1.4-30,1.7-48.3,1.7H4768
		v-14.3h117.4v15.3l-59.6,37.3c-13.1,8.2-26.5,16-39.2,22l0.2,0.5c14.8-0.9,28.9-1.2,48.4-1.2h50.2V921.4z"/>
	<path class="st0" d="M4780.8,784.8v35.7H4768v-87h12.9v35.9h104.6v15.3H4780.8z"/>
	<path class="st0" d="M4769.5,717.2c-1.6-7.7-2.4-18.6-2.4-29.1c0-16.2,3-26.7,9.6-34c5.2-5.9,13.2-9.2,22.3-9.2
		c15.5,0,25.8,9.8,30,22.1h0.5c3.1-9.1,11.5-14.5,23.7-17.3c16.4-3.8,27.7-6.6,32.2-9.1v15.7c-3.3,1.9-13.4,4.5-28.1,7.8
		c-16.2,3.5-22.3,9.8-22.8,23.5V702h50.9v15.2H4769.5z M4823,702v-15.5c0-16.2-8.9-26.5-22.3-26.5c-15.2,0-21.8,11-22,27
		c0,7.3,0.7,12.5,1.4,15H4823z"/>
	<path class="st0" d="M4885.4,596.8h-49.8l-67.6,37.1v-17.3l32.4-16.6c8.9-4.5,16-8,24.2-11.7V588c-7.7-3.3-15.3-7.3-24.2-11.8
		l-32.4-16.9V542l67.4,39.4h50V596.8z"/>
</g>
<g>
	<path class="st0" d="M2290.1,4884.4c3.4,9.6,9.1,28.4,9.1,50.8c0,25-6.4,45.6-21.8,61.8c-13.7,14.2-35.8,23.1-61.6,23.1
		c-49.3-0.2-85.3-34.1-85.3-89.5c0-19.1,4.2-34.1,7.6-41.2l17.4,5.2c-3.9,8.8-7.1,19.9-7.1,36.5c0,40.2,25,66.5,66.5,66.5
		c41.9,0,66.7-25.3,66.7-63.8c0-14-2-23.5-4.4-28.4h-49.3v33.6h-17.2v-54.4H2290.1z"/>
	<path class="st0" d="M2134.3,4852.3c-2.2-10.8-3.4-26.2-3.4-41c0-22.8,4.2-37.5,13.5-47.8c7.4-8.3,18.6-13,31.4-13
		c21.8,0,36.3,13.7,42.2,31.1h0.7c4.4-12.8,16.2-20.4,33.4-24.3c23.1-5.4,39-9.3,45.4-12.8v22.1c-4.7,2.7-18.9,6.4-39.5,11
		c-22.8,4.9-31.4,13.7-32.1,33.1v20.1h71.6v21.3H2134.3z M2209.6,4831v-21.8c0-22.8-12.5-37.3-31.4-37.3c-21.3,0-30.7,15.5-30.9,38
		c0,10.3,1,17.7,2,21.1H2209.6z"/>
	<path class="st0" d="M2219.9,4636.3v64.2h59.6v-71.6h17.9v92.9h-165.3v-89.3h17.9v67.9h52.2v-64.2H2219.9z"/>
	<path class="st0" d="M2245.4,4572.2l52,17.2v22.1l-165.3-56.2v-25.7l165.3-56.4v22.8l-52,17.7V4572.2z M2228.8,4518.1l-47.6,16.2
		c-10.8,3.7-20.6,6.1-30.2,8.6v0.5c9.8,2.5,19.9,5.2,29.9,8.3l47.8,16.2V4518.1z"/>
	<path class="st0" d="M2150.3,4418v50.3h-18.1v-122.4h18.1v50.5h147.1v21.6H2150.3z"/>
	<path class="st0" d="M2134.3,4275.5c-2.2-10.8-3.4-26.2-3.4-41c0-22.8,4.2-37.5,13.5-47.8c7.4-8.3,18.6-13,31.4-13
		c21.8,0,36.3,13.7,42.2,31.1h0.7c4.4-12.8,16.2-20.4,33.4-24.3c23.1-5.4,39-9.3,45.4-12.8v22.1c-4.7,2.7-18.9,6.4-39.5,11
		c-22.8,4.9-31.4,13.7-32.1,33.1v20.1h71.6v21.3H2134.3z M2209.6,4254.2v-21.8c0-22.8-12.5-37.3-31.4-37.3
		c-21.3,0-30.7,15.5-30.9,38c0,10.3,1,17.7,2,21.1H2209.6z"/>
	<path class="st0" d="M2213.1,4001.6c56.9,0,87.1,34.6,87.1,76.8c0,43.7-33.8,74.3-83.9,74.3c-52.5,0-86.8-32.6-86.8-76.8
		C2129.4,4030.8,2164,4001.6,2213.1,4001.6z M2215.8,4129.8c35.3,0,66.9-19.1,66.9-52.7c0-33.8-31.1-53-68.7-53
		c-32.9,0-67.2,17.2-67.2,52.7C2146.9,4112.2,2179.5,4129.8,2215.8,4129.8z"/>
	<path class="st0" d="M2213.1,3833.1c56.9,0,87.1,34.6,87.1,76.8c0,43.7-33.8,74.3-83.9,74.3c-52.5,0-86.8-32.6-86.8-76.8
		C2129.4,3862.3,2164,3833.1,2213.1,3833.1z M2215.8,3961.4c35.3,0,66.9-19.1,66.9-52.7c0-33.8-31.1-53-68.7-53
		c-32.9,0-67.2,17.2-67.2,52.7C2146.9,3943.7,2179.5,3961.4,2215.8,3961.4z"/>
	<path class="st0" d="M2224.8,3671.5c-23.1,1.2-50.8,2.7-71.4,2.5v0.7c19.4,5.6,40,12.5,62.8,20.8l80.2,29.2v16.2l-78.7,26.7
		c-23.3,7.8-44.6,14.5-64.2,19.1v0.5c20.6,0.5,48.3,1.7,73.1,3.2l70.9,4.4v20.4l-165.3-11.5v-27.2l79.9-28.2
		c20.4-6.9,38.5-12.5,55.7-16.7v-0.7c-16.7-4.2-34.8-10.1-55.7-17.4l-79.9-29.4v-27.2l165.3-10.3v20.8L2224.8,3671.5z"/>
</g>
<g>
	<path class="st0" d="M2432.5,4664.4v0.5l15,27.7l-16.4,4.2l-18.6-34.8v-18.4h159.4v20.8H2432.5z"/>
	<path class="st0" d="M2430.5,4492.5v60.8l41,6.1c-0.5-3.7-1-7.1-1-13c0-12.3,2.7-24.5,8.6-34.3c7.1-12.5,20.8-22.8,41-22.8
		c31.1,0,54.4,24.8,54.4,59.3c0,17.4-4.9,32.1-9.8,39.7l-16.4-5.4c3.9-6.6,8.8-19.6,8.8-34.1c0-20.4-13.2-37.8-34.6-37.8
		c-20.6,0.2-35.3,14-35.3,45.9c0,9.1,1,16.2,1.7,22.1l-76.5-10.3v-76.3H2430.5z"/>
	<path class="st0" d="M2403.8,4439.1l58.9,4.2v13.2l-58.9,3.9V4439.1z"/>
	<path class="st0" d="M2547,4410.6c3.9-6.1,10.1-20.4,10.1-35.3c0-27.7-17.7-36.3-30.9-36c-22.3,0.2-31.9,20.4-31.9,41.2v12h-16.2
		v-12c0-15.7-8.1-35.6-27-35.6c-12.8,0-24,8.1-24,28c0,12.8,5.6,25,10.5,31.9l-15.7,5.6c-6.1-8.3-12.3-24.5-12.3-41.7
		c0-31.4,18.6-45.6,38-45.6c16.4,0,30.4,9.8,37.5,29.4h0.5c3.9-19.6,18.6-35.6,41-35.6c25.5,0,47.8,19.9,47.8,58.1
		c0,17.9-5.6,33.6-10.8,41.4L2547,4410.6z"/>
	<path class="st0" d="M2403.8,4230.6l58.9,4.2v13l-58.9,4.2V4230.6z M2403.8,4267.2l58.9,4.2v13.2l-58.9,3.9V4267.2z"/>
	<path class="st0" d="M2571.8,4111.2l-36.5,21.1c-14,8.6-23.1,14-32.6,19.1v0.5c9.6,4.7,18.4,9.3,32.9,17.9l36.3,19.9v24.5
		l-83.6-50.5l-81.7,48.6v-24.8l38.7-21.8c10.8-6.1,19.1-10.8,28-15.2v-0.7c-9.8-4.7-17.4-8.8-28-15l-38.7-22.6v-24.5l80.4,50.3
		l84.8-51.5V4111.2z"/>
	<path class="st0" d="M2432.5,4022.9v0.5l15,27.7l-16.4,4.2l-18.6-34.8v-18.4h159.4v20.8H2432.5z"/>
	<path class="st0" d="M2430.5,3848.8v60.8l41,6.1c-0.5-3.7-1-7.1-1-13c0-12.3,2.7-24.5,8.6-34.3c7.1-12.5,20.8-22.8,41-22.8
		c31.1,0,54.4,24.8,54.4,59.3c0,17.4-4.9,32.1-9.8,39.7l-16.4-5.4c3.9-6.6,8.8-19.6,8.8-34.1c0-20.4-13.2-37.8-34.6-37.8
		c-20.6,0.2-35.3,14-35.3,45.9c0,9.1,1,16.2,1.7,22.1l-76.5-10.3v-76.3H2430.5z"/>
	<path class="st0" d="M2403.8,3795.3l58.9,4.2v13.2l-58.9,3.9V3795.3z"/>
</g>
<g>
	<path class="st0" d="M838.2,2018.9v-21.3h79.7v-0.7c-6.4-4.4-12.3-8.8-17.7-13l-62-50.5v-26.5l70.1,59.8l95.1-64.5v25.3l-81.2,54.4
		l18.1,15.7h63v21.3H838.2z"/>
	<path class="st0" d="M838.2,1865.1h165.3v21.3H838.2V1865.1z"/>
	<path class="st0" d="M856.3,1797.2v50.3h-18.1v-122.4h18.1v50.5h147.1v21.6H856.3z"/>
	<path class="st0" d="M998.1,1591.2c3.9,7.8,7.8,23.5,7.8,43.7c0,46.6-29.4,81.7-83.6,81.7c-51.7,0-86.8-35.1-86.8-86.3
		c0-20.6,4.4-33.6,7.4-39.2l17.4,5.1c-3.9,8.1-6.9,19.6-6.9,33.4c0,38.7,24.8,64.5,68.2,64.5c40.5,0,66.5-23.3,66.5-63.5
		c0-13-2.7-26.2-6.9-34.8L998.1,1591.2z"/>
	<path class="st0" d="M838.2,1544.6h69.2v-79.9h-69.2v-21.6h165.3v21.6H926v79.9h77.5v21.3H838.2V1544.6z"/>
	<path class="st0" d="M926,1320.9v64.3h59.6v-71.6h17.9v92.9H838.2v-89.3h17.9v67.9h52.2v-64.3H926z"/>
	<path class="st0" d="M1003.5,1288.3H838.2V1265l83.6-53c19.4-12.3,36.8-21.8,53.7-29.7l-0.2-0.5c-22.1,2-42.2,2.5-67.9,2.5h-69.2
		v-20.1h165.3v21.6l-83.9,52.5c-18.4,11.5-37.3,22.6-55.2,30.9l0.2,0.7c20.8-1.2,40.7-1.7,68.2-1.7h70.6V1288.3z"/>
</g>
<g>
	<path class="st0" d="M1138.5,2050.6v0.5l15,27.7l-16.4,4.2l-18.6-34.8v-18.4h159.4v20.8H1138.5z"/>
	<path class="st0" d="M1136.5,1878.7v60.8l41,6.1c-0.5-3.7-1-7.1-1-13c0-12.3,2.7-24.5,8.6-34.3c7.1-12.5,20.8-22.8,41-22.8
		c31.1,0,54.4,24.8,54.4,59.3c0,17.4-4.9,32.1-9.8,39.7l-16.4-5.4c3.9-6.6,8.8-19.6,8.8-34.1c0-20.4-13.2-37.8-34.6-37.8
		c-20.6,0.2-35.3,14-35.3,45.9c0,9.1,1,16.2,1.7,22.1l-76.5-10.3v-76.3H1136.5z"/>
	<path class="st0" d="M1109.8,1825.3l58.9,4.2v13.2l-58.9,3.9V1825.3z"/>
	<path class="st0" d="M1253,1796.8c3.9-6.1,10.1-20.4,10.1-35.3c0-27.7-17.7-36.3-30.9-36c-22.3,0.2-31.9,20.4-31.9,41.2v12h-16.2
		v-12c0-15.7-8.1-35.6-27-35.6c-12.8,0-24,8.1-24,28c0,12.8,5.6,25,10.5,31.9l-15.7,5.6c-6.1-8.3-12.3-24.5-12.3-41.7
		c0-31.4,18.6-45.6,38-45.6c16.4,0,30.4,9.8,37.5,29.4h0.5c3.9-19.6,18.6-35.6,41-35.6c25.5,0,47.8,19.9,47.8,58.1
		c0,17.9-5.6,33.6-10.8,41.4L1253,1796.8z"/>
	<path class="st0" d="M1109.8,1616.8l58.9,4.2v13l-58.9,4.2V1616.8z M1109.8,1653.4l58.9,4.2v13.2l-58.9,3.9V1653.4z"/>
	<path class="st0" d="M1277.8,1497.4l-36.5,21.1c-14,8.6-23.1,14-32.6,19.1v0.5c9.6,4.7,18.4,9.3,32.9,17.9l36.3,19.9v24.5
		l-83.6-50.5l-81.7,48.6v-24.8l38.7-21.8c10.8-6.1,19.1-10.8,28-15.2v-0.7c-9.8-4.7-17.4-8.8-28-15l-38.7-22.6v-24.5l80.4,50.3
		l84.8-51.5V1497.4z"/>
	<path class="st0" d="M1138.5,1409.1v0.5l15,27.7l-16.4,4.2l-18.6-34.8v-18.4h159.4v20.8H1138.5z"/>
	<path class="st0" d="M1196.4,1224.2c54.2,0,84.1,20.1,84.1,55.4c0,31.1-29.2,52.2-81.9,52.7c-53.5,0-82.9-23.1-82.9-55.4
		C1115.7,1243.3,1145.6,1224.2,1196.4,1224.2z M1198.8,1310.8c41.4,0,65-12.8,65-32.4c0-22.1-25.7-32.6-66.5-32.6
		c-39.2,0-65,10.1-65,32.4C1132.4,1297.1,1155.4,1310.8,1198.8,1310.8z"/>
	<path class="st0" d="M1109.8,1181.6l58.9,4.2v13.2l-58.9,3.9V1181.6z"/>
	<path class="st0" d="M1138.5,1113.9v0.5l15,27.7l-16.4,4.2l-18.6-34.8V1093h159.4v20.8H1138.5z"/>
	<path class="st0" d="M1109.8,977.8l58.9,4.2v13l-58.9,4.2V977.8z M1109.8,1014.3l58.9,4.2v13.2l-58.9,3.9V1014.3z"/>
</g>
<path class="st0" d="M480.8,1666.7h-35.5c-1.8,0-3.2-1.4-3.2-3.2V953.5c0-1.8,1.4-3.2,3.2-3.2h35.5c1.8,0,3.2,1.4,3.2,3.2v709.9
	C484,1665.2,482.6,1666.7,480.8,1666.7z M448.5,1660.2h29V956.8h-29V1660.2z"/>
<path class="st0" d="M445.3,2373.3c-1.8,0-3.2-1.4-3.2-3.2v-706.7c0-1.8,1.4-3.2,3.2-3.2c1.8,0,3.2,1.4,3.2,3.2v706.7
	C448.5,2371.9,447.1,2373.3,445.3,2373.3z"/>
<path class="st0" d="M516.3,2018.4h-35.5c-1.8,0-3.2-1.4-3.2-3.2v-706.7c0-1.8,1.4-3.2,3.2-3.2h35.5c1.8,0,3.2,1.4,3.2,3.2v706.7
	C519.5,2017,518.1,2018.4,516.3,2018.4z M484,2011.9h29v-700.2h-29V2011.9z"/>
<g>
	<path class="st0" d="M695.1,4553.9c40.4,0,61.9,24.6,61.9,54.5c0,31-24,52.8-59.6,52.8c-37.3,0-61.7-23.2-61.7-54.5
		C635.7,4574.7,660.3,4553.9,695.1,4553.9z M697,4645.1c25.1,0,47.6-13.6,47.6-37.5c0-24-22.1-37.6-48.8-37.6
		c-23.3,0-47.7,12.2-47.7,37.5C648.1,4632.5,671.3,4645.1,697,4645.1z"/>
	<path class="st0" d="M639,4534.6c-1.2-7.3-2.3-16.9-2.3-29.1c0-15,3.5-26,9.8-32.9c5.6-6.4,14.1-10.3,24.6-10.3
		c10.6,0,19,3.1,25.1,9.1c8.5,8,12.9,21.1,12.9,35.9c0,4.5-0.2,8.7-1,12.2h47v15.2H639z M695.7,4519.4c0.9-3.3,1.2-7.5,1.2-12.5
		c0-18.3-8.9-29.4-25.1-29.4c-15.5,0-23,11-23,27.7c0,6.6,0.5,11.7,1.2,14.3H695.7z"/>
	<path class="st0" d="M650.5,4419.1v35.7h-12.9v-87h12.9v35.9h104.6v15.3H650.5z"/>
	<path class="st0" d="M637.6,4339.6h117.4v15.2H637.6V4339.6z"/>
	<path class="st0" d="M695.1,4210c40.4,0,61.9,24.6,61.9,54.5c0,31-24,52.8-59.6,52.8c-37.3,0-61.7-23.2-61.7-54.5
		C635.7,4230.7,660.3,4210,695.1,4210z M697,4301.1c25.1,0,47.6-13.6,47.6-37.5c0-24-22.1-37.6-48.8-37.6
		c-23.3,0-47.7,12.2-47.7,37.5C648.1,4288.5,671.3,4301.1,697,4301.1z"/>
	<path class="st0" d="M755.1,4190.6H637.6v-16.6l59.4-37.6c13.8-8.7,26.1-15.5,38.2-21.1l-0.2-0.3c-15.7,1.4-30,1.7-48.3,1.7h-49.1
		v-14.3h117.4v15.3l-59.6,37.3c-13.1,8.2-26.5,16-39.2,22l0.2,0.5c14.8-0.9,28.9-1.2,48.4-1.2h50.2V4190.6z"/>
	<path class="st0" d="M718.1,4055.8l36.9,12.2v15.7l-117.4-39.9v-18.3l117.4-40.1v16.2l-36.9,12.5V4055.8z M706.3,4017.2l-33.8,11.5
		c-7.7,2.6-14.6,4.4-21.4,6.1v0.3c7,1.7,14.1,3.7,21.3,5.9l34,11.5V4017.2z"/>
	<path class="st0" d="M637.6,3968.5v-15.2h104.7v-50.2h12.7v65.3H637.6z"/>
</g>
<g>
	<path class="st0" d="M831.2,4683.3V4620h12.7v48.1h39v-44.4h12.5v44.4h53.1v15.2H831.2z"/>
	<path class="st0" d="M831.2,4582.7h117.4v15.2H831.2V4582.7z"/>
	<path class="st0" d="M832.8,4556.7c-1.6-7.7-2.4-18.6-2.4-29.1c0-16.2,3-26.7,9.6-34c5.2-5.9,13.2-9.2,22.3-9.2
		c15.5,0,25.8,9.8,30,22.1h0.5c3.1-9.1,11.5-14.5,23.7-17.2c16.4-3.8,27.7-6.6,32.2-9.1v15.7c-3.3,1.9-13.4,4.5-28.1,7.8
		c-16.2,3.5-22.3,9.8-22.8,23.5v14.3h50.9v15.2H832.8z M886.3,4541.6v-15.5c0-16.2-8.9-26.5-22.3-26.5c-15.2,0-21.8,11-22,27
		c0,7.3,0.7,12.5,1.4,15H886.3z"/>
	<path class="st0" d="M893.6,4399.9v45.7h42.3v-50.9h12.7v66H831.2v-63.4h12.7v48.3H881v-45.7H893.6z"/>
	<path class="st0" d="M832.6,4373.4c-1.2-7.3-2.3-16.9-2.3-29.1c0-15,3.5-26,9.8-32.9c5.6-6.4,14.1-10.3,24.6-10.3
		c10.6,0,19,3.1,25.1,9.1c8.5,8,12.9,21.1,12.9,35.9c0,4.5-0.2,8.7-1,12.2h47v15.2H832.6z M889.2,4358.3c0.9-3.3,1.2-7.5,1.2-12.5
		c0-18.3-8.9-29.4-25.1-29.4c-15.5,0-23,11-23,27.7c0,6.6,0.5,11.7,1.2,14.3H889.2z"/>
	<path class="st0" d="M831.2,4281.8v-15.2h104.7v-50.2h12.7v65.3H831.2z"/>
	<path class="st0" d="M911.7,4180.6l36.9,12.2v15.7l-117.4-39.9v-18.3l117.4-40.1v16.2l-36.9,12.5V4180.6z M899.8,4142l-33.8,11.5
		c-7.7,2.6-14.6,4.4-21.4,6.1v0.3c7,1.7,14.1,3.7,21.3,5.9l34,11.5V4142z"/>
	<path class="st0" d="M944.8,4011.2c2.8,5.6,5.6,16.7,5.6,31c0,33.1-20.9,58-59.4,58c-36.8,0-61.7-24.9-61.7-61.3
		c0-14.6,3.1-23.9,5.2-27.9l12.4,3.7c-2.8,5.7-4.9,13.9-4.9,23.7c0,27.5,17.6,45.8,48.4,45.8c28.8,0,47.2-16.6,47.2-45.1
		c0-9.2-1.9-18.6-4.9-24.7L944.8,4011.2z"/>
	<path class="st0" d="M893.6,3931v45.7h42.3v-50.9h12.7v66H831.2v-63.4h12.7v48.3H881V3931H893.6z"/>
</g>
<path class="st0" d="M4314.3,2060.3c-0.8,0-1.7-0.3-2.3-1c-1.2-1.3-1.2-3.3,0.1-4.6l78.1-75.1h-227.6c-1.8,0-3.2-1.4-3.2-3.2
	s1.4-3.2,3.2-3.2h235.6c1.3,0,2.5,0.8,3,2c0.5,1.2,0.2,2.6-0.8,3.5l-83.9,80.7C4315.9,2060,4315.1,2060.3,4314.3,2060.3z"/>
<path class="st0" d="M4398.2,1979.7c-0.8,0-1.7-0.3-2.3-0.9l-83.9-83.9c-1.3-1.3-1.3-3.3,0-4.6c1.3-1.3,3.3-1.3,4.6,0l83.9,83.9
	c1.3,1.3,1.3,3.3,0,4.6C4399.9,1979.4,4399,1979.7,4398.2,1979.7z"/>
<g>
	<path class="st0" d="M3946.7,2088.8c-1.4-9.2-2.4-20.2-2.4-32.2c0-21.8,5.1-37.3,14.6-47.6c9.6-10.5,23.2-16.6,42.2-16.6
		c19.2,0,34.9,5.9,45.7,16.9c11,11,16.9,29.1,16.9,51.9c0,10.8-0.5,19.9-1.4,27.5H3946.7z M4050.5,2073.7c0.7-3.8,0.9-9.4,0.9-15.3
		c0-32.4-18.1-50-49.8-50c-27.7-0.2-45.3,15.5-45.3,47.6c0,7.8,0.7,13.8,1.6,17.8H4050.5z"/>
	<path class="st0" d="M4062.6,1973.1h-117.4v-16.6l59.4-37.6c13.8-8.7,26.1-15.5,38.2-21.1l-0.2-0.3c-15.7,1.4-30,1.7-48.3,1.7
		h-49.1V1885h117.4v15.3l-59.6,37.3c-13.1,8.2-26.5,16-39.2,22l0.2,0.5c14.8-0.9,28.9-1.2,48.4-1.2h50.2V1973.1z"/>
</g>
<g>
	<path class="st0" d="M6971.8,2057.6h69.5c26.3,0,37.5-11.7,37.5-27.4c0-17.4-11.5-28.6-37.5-28.6h-69.5v-15.3h68.5
		c36.1,0,50.9,19,50.9,44.4c0,24-13.8,42.2-50.2,42.2h-69.2V2057.6z"/>
	<path class="st0" d="M6973.2,1960.4c-1.2-7.3-2.3-16.9-2.3-29.1c0-15,3.5-26,9.8-32.9c5.6-6.4,14.1-10.3,24.6-10.3
		c10.6,0,19,3.1,25.1,9.1c8.5,8,12.9,21.1,12.9,35.9c0,4.5-0.2,8.7-1,12.2h47v15.2H6973.2z M7029.9,1945.3c0.9-3.3,1.2-7.5,1.2-12.5
		c0-18.3-8.9-29.4-25.1-29.4c-15.5,0-23,11-23,27.7c0,6.6,0.5,11.7,1.2,14.3H7029.9z"/>
</g>
<path class="st0" d="M6873.2,1979.7h-235.6c-1.3,0-2.5-0.8-3-2c-0.5-1.2-0.2-2.6,0.7-3.5l83.9-83.9c1.3-1.3,3.3-1.3,4.6,0
	c1.3,1.3,1.3,3.3,0,4.6l-78.4,78.4h227.8c1.8,0,3.2,1.4,3.2,3.2S6875,1979.7,6873.2,1979.7z"/>
<path class="st0" d="M6721.5,2060.3c-0.8,0-1.6-0.3-2.2-0.9l-83.9-80.7c-1.3-1.2-1.3-3.3-0.1-4.6c1.2-1.3,3.3-1.3,4.6-0.1l83.9,80.7
	c1.3,1.2,1.3,3.3,0.1,4.6C6723.2,2060,6722.4,2060.3,6721.5,2060.3z"/>
<path class="st0" d="M5805.1,721.2h-38.7l-1.8-0.6l-19.4-12.9l-16.6-16.5l-19.7-26.2l-16.4-32.8l-13.1-35.8l-12.9-38.8l-9.8-45.5
	l-13-97.1l0-52c0-1.8,1.4-3.2,3.2-3.2s3.2,1.4,3.2,3.2v51.6l12.9,96.4l9.6,44.9l12.8,38.4l12.9,35.4l16,31.9l19.1,25.3l15.8,15.8
	l18.1,12h36.8l18.5-12.4l15.6-15.7l19.1-25.5l15.8-31.8l12.8-35.2l12.9-38.6l9.6-44.8l12.9-96.6l0-51.2c0-1.8,1.4-3.2,3.2-3.2
	s3.2,1.4,3.2,3.2v51.6l-12.9,97.2l-9.7,45.4l-13,39l-12.9,35.6l-16.3,32.6l-19.7,26.3l-16.4,16.5l-19.9,13.3L5805.1,721.2z"/>
<path class="st0" d="M5989,304.9c-1.8,0-3.2-1.4-3.2-3.2v-142h-406.6c-1.8,0-3.2-1.4-3.2-3.2c0-1.8,1.4-3.2,3.2-3.2H5989
	c1.8,0,3.2,1.4,3.2,3.2v145.2C5992.2,303.5,5990.8,304.9,5989,304.9z"/>
<path class="st0" d="M5643.8,366.2c-0.8,0-1.6-0.3-2.2-0.9L5577,304c-0.6-0.6-1-1.4-1-2.3V156.5c0-1.8,1.4-3.2,3.2-3.2
	s3.2,1.4,3.2,3.2v143.8l63.5,60.4c1.3,1.2,1.4,3.3,0.1,4.6C5645.5,365.9,5644.6,366.2,5643.8,366.2z"/>
<path class="st0" d="M5924.5,366.2c-0.9,0-1.7-0.3-2.3-1c-1.2-1.3-1.2-3.3,0.1-4.6l64.5-61.3c1.3-1.3,3.3-1.2,4.6,0.1
	c1.2,1.3,1.2,3.3-0.1,4.6l-64.5,61.3C5926.1,366,5925.3,366.2,5924.5,366.2z"/>
<path class="st0" d="M6573.1,317.9c-1.7,0-3.1-1.3-3.2-2.9l-3.2-35.5l-9.6-35l-12.6-31.4l-25.4-28.6l-25.5-22.3
	c-1.3-1.2-1.5-3.2-0.3-4.5c1.2-1.3,3.2-1.5,4.6-0.3l25.8,22.6l26.7,30.3l12.9,32.2l9.8,35.9l3.3,36.1c0.2,1.8-1.2,3.3-2.9,3.5
	C6573.3,317.9,6573.2,317.9,6573.1,317.9z"/>
<path class="st0" d="M6376.5,472.7l-39.2-3.3l-36.7-6.8l-32.3-16.1l-29.4-19.6l-26.7-23.5l-19.4-29l-13.4-27.6l0.2-68.9l12.9-35.5
	l13.5-33.3l25.8-29l26.1-22.8c1.3-1.2,3.3-1.1,4.6,0.3c1.2,1.3,1,3.4-0.3,4.5l-25.8,22.6l-25.2,28.4l-12.7,31.7l-12.7,34.9v66.4
	l12.6,25.1l18.9,28.3l25.5,22.3l28.7,19.1l31.5,15.7l35,6.4l38.4,3.2l41.4-3.3l34.7-6.3l31.9-15.9l28.7-19.1l25.2-22.1l19.1-28.7
	l9.2-24.8l3.2-31.9c0.2-1.8,1.7-3.3,3.5-2.9c1.8,0.2,3.1,1.8,2.9,3.5l-3.4,33.1l-9.7,25.8l-20.3,30.3l-25.8,22.6l-29.4,19.6
	l-33.5,16.6l-35.5,6.5L6376.5,472.7z"/>
<path class="st0" d="M6376.5,437.2l-32.9-3.2l-32.9-9.8l-23.3-13.2l-26.8-20.3l-16.1-22.6l-13.5-27.3l-3.2-25.8l3.6-27.8l12.9-22.6
	l16.3-22.9l26.3-23.1l23.1-13.3l33.9-10.1l68.8,0.2l29,9.7l26.9,13.6l25.8,22.6l16.6,23.2l13.5,24.1l3.2,26.6l-3.5,26.9l-12.9,25.8
	l-17.1,23.7l-25.8,19.4l-26.3,13.2l-29.5,9.9L6376.5,437.2z M6265.6,386.5l25.4,19.1l22.3,12.7l31.6,9.4l31.6,3.1l34.9-3.2l28.3-9.6
	l25.4-12.7l24.9-18.7l15.8-22.2l12.4-24.9l3.1-24.9l-3.1-24.8l-12.6-22l-16-22.3l-25-21.7l-25.4-12.7l-28.1-9.3h-66.8l-31.8,9.6
	l-21.9,12.6l-25.3,22.2l-15.6,22.1l-12.4,21.8l-3.2,25.2l3.2,24.5l12.7,25.3L6265.6,386.5z"/>
<path class="st0" d="M6495.6,159.7h-235.6c-1.8,0-3.2-1.4-3.2-3.2c0-1.8,1.4-3.2,3.2-3.2h235.6c1.8,0,3.2,1.4,3.2,3.2
	C6498.9,158.3,6497.4,159.7,6495.6,159.7z"/>
<path class="st0" d="M3385,317.9h-58.1c-1.8,0-3.2-1.4-3.2-3.2c0-1.8,1.4-3.2,3.2-3.2h58.1c1.8,0,3.2,1.4,3.2,3.2
	C3388.2,316.4,3386.8,317.9,3385,317.9z"/>
<path class="st0" d="M3268.8,317.9h-119.4c-1.8,0-3.2-1.4-3.2-3.2c0-1.8,1.4-3.2,3.2-3.2h119.4c1.8,0,3.2,1.4,3.2,3.2
	C3272,316.4,3270.6,317.9,3268.8,317.9z"/>
<path class="st0" d="M3091.3,317.9h-119.4c-1.8,0-3.2-1.4-3.2-3.2c0-1.8,1.4-3.2,3.2-3.2h119.4c1.8,0,3.2,1.4,3.2,3.2
	C3094.6,316.4,3093.1,317.9,3091.3,317.9z"/>
<path class="st0" d="M2913.8,317.9h-116.2c-1.8,0-3.2-1.4-3.2-3.2c0-1.8,1.4-3.2,3.2-3.2h116.2c1.8,0,3.2,1.4,3.2,3.2
	C2917.1,316.4,2915.6,317.9,2913.8,317.9z"/>
<path class="st0" d="M2736.4,317.9h-116.2c-1.8,0-3.2-1.4-3.2-3.2c0-1.8,1.4-3.2,3.2-3.2h116.2c1.8,0,3.2,1.4,3.2,3.2
	C2739.6,316.4,2738.2,317.9,2736.4,317.9z"/>
<path class="st0" d="M2562.1,317.9h-122.6c-1.8,0-3.2-1.4-3.2-3.2c0-1.8,1.4-3.2,3.2-3.2h122.6c1.8,0,3.2,1.4,3.2,3.2
	C2565.3,316.4,2563.9,317.9,2562.1,317.9z"/>
<path class="st0" d="M2381.4,317.9H2262c-1.8,0-3.2-1.4-3.2-3.2c0-1.8,1.4-3.2,3.2-3.2h119.4c1.8,0,3.2,1.4,3.2,3.2
	C2384.7,316.4,2383.2,317.9,2381.4,317.9z"/>
<path class="st0" d="M2203.9,317.9h-116.2c-1.8,0-3.2-1.4-3.2-3.2c0-1.8,1.4-3.2,3.2-3.2h116.2c1.8,0,3.2,1.4,3.2,3.2
	C2207.2,316.4,2205.7,317.9,2203.9,317.9z"/>
<path class="st0" d="M2026.5,317.9h-116.2c-1.8,0-3.2-1.4-3.2-3.2c0-1.8,1.4-3.2,3.2-3.2h116.2c1.8,0,3.2,1.4,3.2,3.2
	C2029.7,316.4,2028.3,317.9,2026.5,317.9z"/>
<path class="st0" d="M1852.2,317.9h-119.4c-1.8,0-3.2-1.4-3.2-3.2c0-1.8,1.4-3.2,3.2-3.2h119.4c1.8,0,3.2,1.4,3.2,3.2
	C1855.4,316.4,1854,317.9,1852.2,317.9z"/>
<path class="st0" d="M1674.7,317.9h-119.4c-1.8,0-3.2-1.4-3.2-3.2c0-1.8,1.4-3.2,3.2-3.2h119.4c1.8,0,3.2,1.4,3.2,3.2
	C1678,316.4,1676.5,317.9,1674.7,317.9z"/>
<path class="st0" d="M1497.3,317.9h-119.4c-1.8,0-3.2-1.4-3.2-3.2c0-1.8,1.4-3.2,3.2-3.2h119.4c1.8,0,3.2,1.4,3.2,3.2
	C1500.5,316.4,1499,317.9,1497.3,317.9z"/>
<path class="st0" d="M1319.8,317.9h-116.2c-1.8,0-3.2-1.4-3.2-3.2c0-1.8,1.4-3.2,3.2-3.2h116.2c1.8,0,3.2,1.4,3.2,3.2
	C1323,316.4,1321.6,317.9,1319.8,317.9z"/>
<path class="st0" d="M1142.3,317.9h-116.2c-1.8,0-3.2-1.4-3.2-3.2c0-1.8,1.4-3.2,3.2-3.2h116.2c1.8,0,3.2,1.4,3.2,3.2
	C1145.5,316.4,1144.1,317.9,1142.3,317.9z"/>
<path class="st0" d="M968.1,317.9H848.7c-1.8,0-3.2-1.4-3.2-3.2c0-1.8,1.4-3.2,3.2-3.2h119.4c1.8,0,3.2,1.4,3.2,3.2
	C971.3,316.4,969.9,317.9,968.1,317.9z"/>
<path class="st0" d="M790.6,317.9H671.2c-1.8,0-3.2-1.4-3.2-3.2c0-1.8,1.4-3.2,3.2-3.2h119.4c1.8,0,3.2,1.4,3.2,3.2
	C793.8,316.4,792.4,317.9,790.6,317.9z"/>
<path class="st0" d="M613.1,317.9H555c-1.8,0-3.2-1.4-3.2-3.2c0-1.8,1.4-3.2,3.2-3.2h58.1c1.8,0,3.2,1.4,3.2,3.2
	C616.3,316.4,614.9,317.9,613.1,317.9z"/>
<path class="st0" d="M3385,553.4H2262c-1.8,0-3.2-1.4-3.2-3.2s1.4-3.2,3.2-3.2H3385c1.8,0,3.2,1.4,3.2,3.2S3386.8,553.4,3385,553.4z
	"/>
<path class="st0" d="M1674.7,553.4H555c-1.8,0-3.2-1.4-3.2-3.2s1.4-3.2,3.2-3.2h1119.7c1.8,0,3.2,1.4,3.2,3.2
	S1676.5,553.4,1674.7,553.4z"/>
<g>
	<path class="st0" d="M1833.1,1776c-1.4-9.2-2.4-20.2-2.4-32.2c0-21.8,5.1-37.3,14.6-47.6c9.6-10.5,23.2-16.6,42.2-16.6
		c19.2,0,34.8,5.9,45.7,16.9c11,11,16.9,29.1,16.9,51.9c0,10.8-0.5,19.9-1.4,27.5H1833.1z M1936.9,1760.8c0.7-3.8,0.9-9.4,0.9-15.3
		c0-32.4-18.1-50-49.8-50c-27.7-0.2-45.3,15.5-45.3,47.6c0,7.8,0.7,13.8,1.6,17.8H1936.9z"/>
	<path class="st0" d="M1949,1641.1l-117.4,29.8v-16l59.4-13.9c14.6-3.5,29.3-6.6,40.6-8.7v-0.3c-11.7-1.9-25.6-5.6-40.8-9.6
		l-59.2-15.7v-15.9l59.6-14.3c13.9-3.3,27.9-6.4,40.3-8.2v-0.3c-12.9-2.4-26-5.7-40.6-9.4l-59.2-15.5v-15.5l117.4,33.3v15.9
		l-61.2,14.8c-15,3.7-26.5,6.1-38.3,7.7v0.3c11.7,2.1,23.2,4.7,38.3,9.1l61.2,16.7V1641.1z"/>
</g>
<path class="st0" d="M1655.4,1527.9c-1.8,0-3.2-1.4-3.2-3.2v-129.1c0-1.8,1.4-3.2,3.2-3.2s3.2,1.4,3.2,3.2v129.1
	C1658.6,1526.5,1657.2,1527.9,1655.4,1527.9z"/>
<path class="st0" d="M1655.4,1705.4c-1.8,0-3.2-1.4-3.2-3.2v-119.4c0-1.8,1.4-3.2,3.2-3.2s3.2,1.4,3.2,3.2v119.4
	C1658.6,1703.9,1657.2,1705.4,1655.4,1705.4z"/>
<path class="st0" d="M1655.4,1889.3c-1.8,0-3.2-1.4-3.2-3.2v-125.8c0-1.8,1.4-3.2,3.2-3.2s3.2,1.4,3.2,3.2v125.8
	C1658.6,1887.9,1657.2,1889.3,1655.4,1889.3z"/>
<path class="st0" d="M2126.5,1889.3c-1.8,0-3.2-1.4-3.2-3.2v-125.8c0-1.8,1.4-3.2,3.2-3.2s3.2,1.4,3.2,3.2v125.8
	C2129.7,1887.9,2128.3,1889.3,2126.5,1889.3z"/>
<path class="st0" d="M2126.5,1705.4c-1.8,0-3.2-1.4-3.2-3.2v-119.4c0-1.8,1.4-3.2,3.2-3.2s3.2,1.4,3.2,3.2v119.4
	C2129.7,1703.9,2128.3,1705.4,2126.5,1705.4z"/>
<path class="st0" d="M2126.5,1527.9c-1.8,0-3.2-1.4-3.2-3.2v-129.1c0-1.8,1.4-3.2,3.2-3.2s3.2,1.4,3.2,3.2v129.1
	C2129.7,1526.5,2128.3,1527.9,2126.5,1527.9z"/>
<path class="st0" d="M1626.3,1889.3h-58.1c-1.8,0-3.2-1.4-3.2-3.2s1.4-3.2,3.2-3.2h58.1c1.8,0,3.2,1.4,3.2,3.2
	S1628.1,1889.3,1626.3,1889.3z"/>
<path class="st0" d="M1803.8,1889.3h-119.4c-1.8,0-3.2-1.4-3.2-3.2s1.4-3.2,3.2-3.2h119.4c1.8,0,3.2,1.4,3.2,3.2
	S1805.6,1889.3,1803.8,1889.3z"/>
<path class="st0" d="M1981.3,1889.3h-119.4c-1.8,0-3.2-1.4-3.2-3.2s1.4-3.2,3.2-3.2h119.4c1.8,0,3.2,1.4,3.2,3.2
	S1983.1,1889.3,1981.3,1889.3z"/>
<path class="st0" d="M2155.5,1889.3h-116.2c-1.8,0-3.2-1.4-3.2-3.2s1.4-3.2,3.2-3.2h116.2c1.8,0,3.2,1.4,3.2,3.2
	S2157.3,1889.3,2155.5,1889.3z"/>
<path class="st0" d="M2333,1889.3h-116.2c-1.8,0-3.2-1.4-3.2-3.2s1.4-3.2,3.2-3.2H2333c1.8,0,3.2,1.4,3.2,3.2
	S2334.8,1889.3,2333,1889.3z"/>
<path class="st0" d="M2510.5,1889.3h-119.4c-1.8,0-3.2-1.4-3.2-3.2s1.4-3.2,3.2-3.2h119.4c1.8,0,3.2,1.4,3.2,3.2
	S2512.3,1889.3,2510.5,1889.3z"/>
<path class="st0" d="M2688,1889.3h-119.4c-1.8,0-3.2-1.4-3.2-3.2s1.4-3.2,3.2-3.2H2688c1.8,0,3.2,1.4,3.2,3.2
	S2689.8,1889.3,2688,1889.3z"/>
<path class="st0" d="M2865.4,1889.3H2746c-1.8,0-3.2-1.4-3.2-3.2s1.4-3.2,3.2-3.2h119.4c1.8,0,3.2,1.4,3.2,3.2
	S2867.2,1889.3,2865.4,1889.3z"/>
<path class="st0" d="M3039.7,1889.3h-116.2c-1.8,0-3.2-1.4-3.2-3.2s1.4-3.2,3.2-3.2h116.2c1.8,0,3.2,1.4,3.2,3.2
	S3041.5,1889.3,3039.7,1889.3z"/>
<path class="st0" d="M3217.2,1889.3H3101c-1.8,0-3.2-1.4-3.2-3.2s1.4-3.2,3.2-3.2h116.2c1.8,0,3.2,1.4,3.2,3.2
	S3218.9,1889.3,3217.2,1889.3z"/>
<path class="st0" d="M3336.6,1889.3h-61.3c-1.8,0-3.2-1.4-3.2-3.2s1.4-3.2,3.2-3.2h61.3c1.8,0,3.2,1.4,3.2,3.2
	S3338.3,1889.3,3336.6,1889.3z"/>
<path class="st0" d="M2804.1,1870h-648.6c-1.8,0-3.2-1.4-3.2-3.2v-432.4c0-1.8,1.4-3.2,3.2-3.2h648.6c1.8,0,3.2,1.4,3.2,3.2v432.4
	C2807.4,1868.5,2805.9,1870,2804.1,1870z M2158.8,1863.5h642.1v-425.9h-642.1V1863.5z"/>
<path class="st0" d="M2765.4,1811.9c-1.8,0-3.2-1.4-3.2-3.2v-303.3c0-1.8,1.4-3.2,3.2-3.2c1.8,0,3.2,1.4,3.2,3.2v303.3
	C2768.6,1810.4,2767.2,1811.9,2765.4,1811.9z"/>
<path class="st0" d="M2765.4,1508.6c-1.2,0-2.3-0.7-2.9-1.8l-6-11.9l-11.9-6c-1.6-0.8-2.2-2.7-1.4-4.3c0.8-1.6,2.8-2.3,4.3-1.4
	l12.9,6.5l1.4,1.4l6.5,12.9c0.8,1.6,0.1,3.5-1.4,4.3C2766.4,1508.5,2765.9,1508.6,2765.4,1508.6z"/>
<path class="st0" d="M2746,1489.2h-203.3c-1.8,0-3.2-1.4-3.2-3.2c0-1.8,1.4-3.2,3.2-3.2H2746c1.8,0,3.2,1.4,3.2,3.2
	C2749.3,1487.7,2747.8,1489.2,2746,1489.2z"/>
<path class="st0" d="M2520.2,1508.6c-0.5,0-1-0.1-1.4-0.3c-1.6-0.8-2.2-2.7-1.4-4.3l6.5-12.9l1.7-1.5l16.1-6.5
	c1.7-0.6,3.5,0.1,4.2,1.8c0.7,1.7-0.1,3.5-1.8,4.2l-15,6l-5.9,11.8C2522.5,1507.9,2521.3,1508.6,2520.2,1508.6z"/>
<path class="st0" d="M2520.2,1811.9c-1.8,0-3.2-1.4-3.2-3.2v-303.3c0-1.8,1.4-3.2,3.2-3.2s3.2,1.4,3.2,3.2v303.3
	C2523.4,1810.4,2522,1811.9,2520.2,1811.9z"/>
<path class="st0" d="M2542.8,1831.2c-0.4,0-0.8-0.1-1.2-0.2l-16.1-6.5l-1.7-1.5l-6.5-12.9c-0.8-1.6-0.1-3.5,1.4-4.3
	c1.5-0.8,3.5-0.2,4.3,1.4l5.9,11.8l15,6c1.7,0.7,2.5,2.5,1.8,4.2C2545.3,1830.5,2544,1831.2,2542.8,1831.2z"/>
<path class="st0" d="M2746,1831.2h-203.3c-1.8,0-3.2-1.4-3.2-3.2s1.4-3.2,3.2-3.2H2746c1.8,0,3.2,1.4,3.2,3.2
	S2747.8,1831.2,2746,1831.2z"/>
<path class="st0" d="M2746,1831.2c-1.2,0-2.3-0.7-2.9-1.8c-0.8-1.6-0.1-3.5,1.4-4.3l11.9-6l6-11.9c0.8-1.6,2.8-2.3,4.3-1.4
	c1.6,0.8,2.2,2.7,1.4,4.3l-6.5,12.9l-1.4,1.4l-12.9,6.5C2747,1831.1,2746.5,1831.2,2746,1831.2z"/>
<path class="st0" d="M2439.5,1811.9c-1.8,0-3.2-1.4-3.2-3.2v-303.3c0-1.8,1.4-3.2,3.2-3.2s3.2,1.4,3.2,3.2v303.3
	C2442.7,1810.4,2441.3,1811.9,2439.5,1811.9z"/>
<path class="st0" d="M2439.5,1508.6c-1.2,0-2.3-0.7-2.9-1.8l-6-11.9l-11.9-6c-1.6-0.8-2.2-2.7-1.4-4.3c0.8-1.6,2.8-2.3,4.3-1.4
	l12.9,6.5l1.4,1.4l6.4,12.9c0.8,1.6,0.1,3.5-1.4,4.3C2440.5,1508.5,2440,1508.6,2439.5,1508.6z"/>
<path class="st0" d="M2420.1,1489.2h-203.3c-1.8,0-3.2-1.4-3.2-3.2c0-1.8,1.4-3.2,3.2-3.2h203.3c1.8,0,3.2,1.4,3.2,3.2
	C2423.4,1487.7,2421.9,1489.2,2420.1,1489.2z"/>
<path class="st0" d="M2197.5,1508.6c-0.3,0-0.5,0-0.8-0.1c-1.7-0.4-2.8-2.2-2.3-3.9l3.2-12.9l1.9-2.2l16.1-6.5
	c1.7-0.6,3.5,0.1,4.2,1.8c0.7,1.7-0.1,3.5-1.8,4.2l-14.6,5.9l-2.8,11.3C2200.3,1507.6,2198.9,1508.6,2197.5,1508.6z"/>
<path class="st0" d="M2197.5,1811.9c-1.8,0-3.2-1.4-3.2-3.2v-303.3c0-1.8,1.4-3.2,3.2-3.2s3.2,1.4,3.2,3.2v303.3
	C2200.7,1810.4,2199.3,1811.9,2197.5,1811.9z"/>
<path class="st0" d="M2216.9,1831.2c-0.4,0-0.8-0.1-1.2-0.2l-16.1-6.5l-1.9-2.2l-3.2-12.9c-0.4-1.7,0.6-3.5,2.3-3.9
	c1.6-0.5,3.5,0.6,3.9,2.3l2.8,11.3l14.6,5.9c1.7,0.7,2.5,2.5,1.8,4.2C2219.3,1830.5,2218.1,1831.2,2216.9,1831.2z"/>
<path class="st0" d="M2420.1,1831.2h-203.3c-1.8,0-3.2-1.4-3.2-3.2s1.4-3.2,3.2-3.2h203.3c1.8,0,3.2,1.4,3.2,3.2
	S2421.9,1831.2,2420.1,1831.2z"/>
<path class="st0" d="M2420.1,1831.2c-1.2,0-2.3-0.7-2.9-1.8c-0.8-1.6-0.1-3.5,1.4-4.3l11.9-6l6-11.9c0.8-1.6,2.7-2.3,4.3-1.4
	c1.6,0.8,2.2,2.7,1.4,4.3l-6.4,12.9l-1.4,1.4l-12.9,6.5C2421.1,1831.1,2420.6,1831.2,2420.1,1831.2z"/>
<path class="st0" d="M3275.2,1398.8H1626.3c-1.8,0-3.2-1.4-3.2-3.2s1.4-3.2,3.2-3.2h1648.9c1.8,0,3.2,1.4,3.2,3.2
	S3277,1398.8,3275.2,1398.8z"/>
<path class="st0" d="M3336.6,1456.9c-1.4,0-2.7-0.9-3.1-2.3l-6.3-22.1l-12.1-18.2l-18.6-9.3l-22-6.2c-1.7-0.5-2.7-2.3-2.2-4
	c0.5-1.7,2.3-2.7,4-2.2l22.6,6.4l19.9,9.9l1.2,1.1l13.3,20.2l6.4,22.6c0.5,1.7-0.5,3.5-2.2,4
	C3337.1,1456.9,3336.8,1456.9,3336.6,1456.9z"/>
<path class="st0" d="M3275.2,2105.5H1626.3c-1.8,0-3.2-1.4-3.2-3.2c0-1.8,1.4-3.2,3.2-3.2h1648.9c1.8,0,3.2,1.4,3.2,3.2
	C3278.5,2104.1,3277,2105.5,3275.2,2105.5z"/>
<path class="st0" d="M1626.3,2105.5c-0.3,0-0.6-0.1-0.9-0.1l-22.6-6.4l-19.9-9.9l-1.2-1.1l-13.4-20.7l-3.2-22.6
	c-0.2-1.8,1-3.4,2.7-3.7c1.8-0.1,3.4,1,3.7,2.8l3.1,21.8l12,18l18.6,9.3l22,6.2c1.7,0.5,2.7,2.3,2.2,4
	C1629,2104.6,1627.7,2105.5,1626.3,2105.5z"/>
<path class="st0" d="M1568.3,2047.4c-1.8,0-3.2-1.4-3.2-3.2v-590.5c0-1.8,1.4-3.2,3.2-3.2s3.2,1.4,3.2,3.2v590.5
	C1571.5,2046,1570,2047.4,1568.3,2047.4z"/>
<path class="st0" d="M1568.3,1456.9c-0.1,0-0.3,0-0.5,0c-1.8-0.3-3-1.9-2.7-3.7l3.7-23.9l12.9-19.4l1.2-1.1l19.4-9.7l23.2-6.6
	c1.7-0.4,3.5,0.5,4,2.2c0.5,1.7-0.5,3.5-2.2,4l-22.6,6.4l-18,9.1l-12,18l-3.1,21.8C1571.2,1455.8,1569.8,1456.9,1568.3,1456.9z"/>
<path class="st0" d="M3336.6,2047.4c-1.8,0-3.2-1.4-3.2-3.2v-590.5c0-1.8,1.4-3.2,3.2-3.2s3.2,1.4,3.2,3.2v590.5
	C3339.8,2046,3338.3,2047.4,3336.6,2047.4z"/>
<path class="st0" d="M3275.2,2105.5c-1.4,0-2.7-0.9-3.1-2.3c-0.5-1.7,0.5-3.5,2.2-4l22.6-6.4l18-9.1l12.1-18.2l6.3-22.1
	c0.5-1.7,2.2-2.7,4-2.2c1.7,0.5,2.7,2.3,2.2,4l-6.9,23.5l-12.9,19.4l-1.2,1.1l-19.4,9.7l-23.1,6.6
	C3275.8,2105.5,3275.5,2105.5,3275.2,2105.5z"/>
<path class="st0" d="M2262,592.1h-587.3c-1.8,0-3.2-1.4-3.2-3.2V79.1c0-1.8,1.4-3.2,3.2-3.2c1.8,0,3.2,1.4,3.2,3.2v506.6h580.8V79.1
	c0-1.8,1.4-3.2,3.2-3.2s3.2,1.4,3.2,3.2v509.8C2265.2,590.7,2263.8,592.1,2262,592.1z"/>
<path class="st0" d="M2107.5,327.5h-0.8l-27-3.6l-23.3-13.4l-16.1-16.1l-17-20.9l-6.5-25.8l-0.1-23.4l7.2-27.9l16.1-19.4l17.3-17
	l23.5-9.9l25.8-3.2l27.5,3.5l23.6,10.3l16.1,16.1l13.3,19.9l10.2,27.6l-0.2,23.7l-9.7,25.8l-13.2,20l-17.2,17.1l-23.8,13.3
	L2107.5,327.5z M2082.4,318l24.8,3.1l24.8-3.1l21.6-12.4l15.8-15.8l12.5-18.9l9.1-24.6v-21.4l-9.5-25.3l-12.6-18.7l-15.3-15.2
	l-21.6-9.2l-25.4-3.2l-24.6,3.2l-21.6,9.2l-15.7,15.7l-15.5,18.6l-6.3,25.1l0.1,21.8l6.2,24.3l15.7,18.8l15.6,15.6L2082.4,318z"/>
<path class="st0" d="M2107.5,563.1h-0.8l-27-3.6l-23.3-13.4l-16.1-16.1l-17-20.9l-6.5-25.8l-0.1-23.4l0.1-0.9l6.9-23.6l16.1-22.6
	l17.5-17.2l23.5-9.9l25.8-3.2l27.5,3.5l23.6,10.4l16.6,16.8l12.9,22.6l10.1,24.2l-0.2,23.7l-9.7,25.8l-13.2,20l-17.2,17.1
	l-23.8,13.3L2107.5,563.1z M2082.4,553.5l24.8,3.1l24.8-3.1l21.6-12.4l15.8-15.8l12.5-18.9l9.1-24.6v-21.4l-9.4-22l-12.5-21.9
	l-15.4-15.4l-21.6-9.3l-25.4-3.2l-24.6,3.2l-21.6,9.3l-15.7,15.7l-15.5,21.7l-6.2,21.6v22.2l6.2,24.3l15.7,18.8l15.6,15.6
	L2082.4,553.5z"/>
<path class="st0" d="M1830,563.1h-0.9l-23.7-3.6l-22.6-12.9l-20.4-17.1l-13.4-20.4l-6.4-25.8l-0.1-23.4l0.1-0.9l6.4-22.6l13.9-24.2
	l20.2-16.6l23.4-9.9l23.5-3.2l26.7,3.5l23.6,10.4l16.1,16.1l17,24l6.6,23.5v22.6l-7.2,27.9l-16.1,19.4l-17,16.9l-23.8,13.3
	L1830,563.1z M1808.1,553.5l21.6,3.1l24.8-3.1l21.6-12.4l15.8-15.8l15.5-18.6l6.3-25.1l-0.1-21.4l-6.2-21.6l-15.8-22.1l-15.3-15.3
	l-21.6-9.3l-24.9-3.1l-21.7,3.1l-21.8,9.3l-18.6,15.4l-12.6,22.1l-6,21.4v22.2l6.2,24.5l12.3,18.5l19,15.8L1808.1,553.5z"/>
<path class="st0" d="M1830,327.5h-0.8l-23.8-3.6l-22.6-12.9l-20.5-17.1l-13.3-20.4l-6.4-25.8l-0.1-23.4l7-27.6l13.5-20l20.2-16.6
	l23.4-9.9l23.5-3.2l26.7,3.5l23.6,10.3l16.1,16.1l17,20.9l6.4,25.8l0.1,23.4l-7.2,27.9l-16.1,19.4l-17,16.9l-23.8,13.3L1830,327.5z
	 M1808.1,318l21.6,3l24.8-3.1l21.6-12.4l15.8-15.8l15.5-18.6l6.3-25.1l-0.1-21.8l-6.2-24.3l-15.7-18.8l-15.5-15.5l-21.6-9.2
	l-24.9-3.1l-21.7,3.1l-21.8,9.3l-18.6,15.5l-12.3,18.5l-6.3,25.3l0.1,21.8l6.2,24.5l12.3,18.5l19,15.8L1808.1,318z"/>
<path class="st0" d="M4123.9,553.4h-158.1c-1.8,0-3.2-1.4-3.2-3.2s1.4-3.2,3.2-3.2h158.1c1.8,0,3.2,1.4,3.2,3.2
	S4125.7,553.4,4123.9,553.4z"/>
<path class="st0" d="M3769,553.4h-58.1c-1.8,0-3.2-1.4-3.2-3.2s1.4-3.2,3.2-3.2h58.1c1.8,0,3.2,1.4,3.2,3.2S3770.7,553.4,3769,553.4
	z"/>
<path class="st0" d="M3652.8,553.4h-119.4c-1.8,0-3.2-1.4-3.2-3.2s1.4-3.2,3.2-3.2h119.4c1.8,0,3.2,1.4,3.2,3.2
	S3654.6,553.4,3652.8,553.4z"/>
<path class="st0" d="M3475.3,553.4H3414c-1.8,0-3.2-1.4-3.2-3.2s1.4-3.2,3.2-3.2h61.3c1.8,0,3.2,1.4,3.2,3.2
	S3477.1,553.4,3475.3,553.4z"/>
<g>
	<path class="st0" d="M3611,523.9c-1.6-7.7-2.4-18.6-2.4-29.1c0-16.2,3-26.7,9.6-34c5.2-5.9,13.2-9.2,22.3-9.2
		c15.5,0,25.8,9.8,30,22.1h0.5c3.1-9.1,11.5-14.5,23.7-17.3c16.4-3.8,27.7-6.6,32.2-9.1v15.7c-3.3,1.9-13.4,4.5-28.1,7.8
		c-16.2,3.5-22.3,9.8-22.8,23.5v14.3h50.9v15.2H3611z M3664.5,508.7v-15.5c0-16.2-8.9-26.5-22.3-26.5c-15.2,0-21.8,11-22,27
		c0,7.3,0.7,12.5,1.4,15H3664.5z"/>
	<path class="st0" d="M3671.9,368.8v45.7h42.3v-50.9h12.7v66h-117.4v-63.4h12.7v48.3h37.1v-45.7H3671.9z"/>
	<path class="st0" d="M3609.5,343.9v-63.3h12.7v48.1h39v-44.4h12.5v44.4h53.1v15.2H3609.5z"/>
	<path class="st0" d="M3717.9,264.2c-6.4,0-11-4.4-11-10.5c0-6.1,4.5-10.3,11-10.3c6.3,0,11,4,11,10.5
		C3728.8,260.1,3724.1,264.2,3717.9,264.2z"/>
</g>
<g>
	<path class="st0" d="M3868.7,534.1v45.7h42.3v-50.9h12.7v66h-117.4v-63.4h12.7v48.3h37.1v-45.7H3868.7z"/>
	<path class="st0" d="M3923.8,509.2h-117.4v-16.6l59.4-37.6c13.8-8.7,26.1-15.5,38.2-21.1l-0.2-0.3c-15.7,1.4-30,1.7-48.3,1.7h-49.1
		V421h117.4v15.3l-59.6,37.3c-13.1,8.2-26.5,16-39.2,22l0.2,0.5c14.8-0.9,28.9-1.2,48.4-1.2h50.2V509.2z"/>
	<path class="st0" d="M3920,312.8c2.8,5.6,5.6,16.7,5.6,31c0,33.1-20.9,58-59.4,58c-36.8,0-61.7-24.9-61.7-61.3
		c0-14.6,3.1-23.9,5.2-27.9l12.4,3.7c-2.8,5.8-4.9,13.9-4.9,23.7c0,27.5,17.6,45.8,48.4,45.8c28.8,0,47.2-16.6,47.2-45.1
		c0-9.2-1.9-18.6-4.9-24.7L3920,312.8z"/>
	<path class="st0" d="M3806.4,289.8v-15.2h104.7v-50.2h12.7v65.3H3806.4z"/>
	<path class="st0" d="M3914.7,215.2c-6.4,0-11-4.4-11-10.5c0-6.1,4.5-10.3,11-10.3c6.3,0,11,4,11,10.5
		C3925.7,211,3921,215.2,3914.7,215.2z"/>
</g>
<polygon class="st0" points="4143.3,56.5 4136.8,79.1 4136.8,537.3 4143.3,540.5 4153,550.2 4153,79.1 "/>
<path class="st0" d="M4136.8,542.1c-2.7,0-4.8-2.2-4.8-4.8V79.1c0-2.7,2.2-4.8,4.8-4.8c2.7,0,4.8,2.2,4.8,4.8v458.2
	C4141.7,540,4139.5,542.1,4136.8,542.1z"/>
<path class="st0" d="M4153,555c-2.7,0-4.8-2.2-4.8-4.8V79.1c0-2.7,2.2-4.8,4.8-4.8c2.7,0,4.8,2.2,4.8,4.8v471.1
	C4157.8,552.9,4155.6,555,4153,555z"/>
<polygon class="st0" points="3394.6,540.5 3401.1,537.3 3401.1,79.1 3394.6,56.5 3385,79.1 3385,550.2 "/>
<path class="st0" d="M3385,555c-2.7,0-4.8-2.2-4.8-4.8V79.1c0-2.7,2.2-4.8,4.8-4.8c2.7,0,4.8,2.2,4.8,4.8v471.1
	C3389.8,552.9,3387.6,555,3385,555z"/>
<path class="st0" d="M3401.1,542.1c-2.7,0-4.8-2.2-4.8-4.8V79.1c0-2.7,2.2-4.8,4.8-4.8s4.8,2.2,4.8,4.8v458.2
	C3405.9,540,3403.8,542.1,3401.1,542.1z"/>
<polygon class="st0" points="4153,550.2 4136.8,537.3 4123.9,537.3 4123.9,550.2 "/>
<path class="st0" d="M4153,555h-29c-2.7,0-4.8-2.2-4.8-4.8v-12.9c0-2.7,2.2-4.8,4.8-4.8s4.8,2.2,4.8,4.8v8.1h24.2
	c2.7,0,4.8,2.2,4.8,4.8S4155.6,555,4153,555z"/>
<path class="st0" d="M4136.8,542.1h-12.9c-2.7,0-4.8-2.2-4.8-4.8s2.2-4.8,4.8-4.8h12.9c2.7,0,4.8,2.2,4.8,4.8
	S4139.5,542.1,4136.8,542.1z"/>
<polygon class="st0" points="3414,550.2 3414,537.3 3401.1,537.3 3385,550.2 "/>
<path class="st0" d="M3414,555h-29c-2.7,0-4.8-2.2-4.8-4.8s2.2-4.8,4.8-4.8h24.2v-3.2h-8.1c-2.7,0-4.8-2.2-4.8-4.8s2.2-4.8,4.8-4.8
	h12.9c2.7,0,4.8,2.2,4.8,4.8v12.9C3418.9,552.9,3416.7,555,3414,555z"/>
<path class="st0" d="M677.6,4845.1H555c-1.8,0-3.2-1.4-3.2-3.2v-77.4c0-1.8,1.4-3.2,3.2-3.2c1.8,0,3.2,1.4,3.2,3.2v74.2h119.4
	c1.8,0,3.2,1.4,3.2,3.2S679.4,4845.1,677.6,4845.1z"/>
<path class="st0" d="M855.1,4845.1H735.7c-1.8,0-3.2-1.4-3.2-3.2s1.4-3.2,3.2-3.2h119.4c1.8,0,3.2,1.4,3.2,3.2
	S856.9,4845.1,855.1,4845.1z"/>
<path class="st0" d="M1035.8,4845.1H913.2c-1.8,0-3.2-1.4-3.2-3.2s1.4-3.2,3.2-3.2h119.4v-135.5c0-1.8,1.4-3.2,3.2-3.2
	s3.2,1.4,3.2,3.2v138.7C1039.1,4843.6,1037.6,4845.1,1035.8,4845.1z"/>
<path class="st0" d="M1035.8,4648.3c-1.8,0-3.2-1.4-3.2-3.2v-116.2c0-1.8,1.4-3.2,3.2-3.2s3.2,1.4,3.2,3.2V4645
	C1039.1,4646.8,1037.6,4648.3,1035.8,4648.3z"/>
<path class="st0" d="M1035.8,4470.8c-1.8,0-3.2-1.4-3.2-3.2v-116.1c0-1.8,1.4-3.2,3.2-3.2s3.2,1.4,3.2,3.2v116.1
	C1039.1,4469.3,1037.6,4470.8,1035.8,4470.8z"/>
<path class="st0" d="M1035.8,4296.5c-1.8,0-3.2-1.4-3.2-3.2v-119.4c0-1.8,1.4-3.2,3.2-3.2s3.2,1.4,3.2,3.2v119.4
	C1039.1,4295.1,1037.6,4296.5,1035.8,4296.5z"/>
<path class="st0" d="M1035.8,4119.1c-1.8,0-3.2-1.4-3.2-3.2v-119.4c0-1.8,1.4-3.2,3.2-3.2s3.2,1.4,3.2,3.2v119.4
	C1039.1,4117.6,1037.6,4119.1,1035.8,4119.1z"/>
<path class="st0" d="M1035.8,3938.4c-1.8,0-3.2-1.4-3.2-3.2V3819c0-1.8,1.4-3.2,3.2-3.2s3.2,1.4,3.2,3.2v116.1
	C1039.1,3936.9,1037.6,3938.4,1035.8,3938.4z"/>
<path class="st0" d="M1035.8,3760.9c-1.8,0-3.2-1.4-3.2-3.2v-132.3H913.2c-1.8,0-3.2-1.4-3.2-3.2c0-1.8,1.4-3.2,3.2-3.2h122.6
	c1.8,0,3.2,1.4,3.2,3.2v135.5C1039.1,3759.4,1037.6,3760.9,1035.8,3760.9z"/>
<path class="st0" d="M855.1,3625.4H735.7c-1.8,0-3.2-1.4-3.2-3.2c0-1.8,1.4-3.2,3.2-3.2h119.4c1.8,0,3.2,1.4,3.2,3.2
	C858.4,3623.9,856.9,3625.4,855.1,3625.4z"/>
<path class="st0" d="M555,3702.8c-1.8,0-3.2-1.4-3.2-3.2v-77.4c0-1.8,1.4-3.2,3.2-3.2h122.6c1.8,0,3.2,1.4,3.2,3.2
	c0,1.8-1.4,3.2-3.2,3.2H558.3v74.2C558.3,3701.4,556.8,3702.8,555,3702.8z"/>
<path class="st0" d="M516.3,3773.8H409.8c-1.8,0-3.2-1.4-3.2-3.2s1.4-3.2,3.2-3.2h106.5c1.8,0,3.2,1.4,3.2,3.2
	S518.1,3773.8,516.3,3773.8z"/>
<path class="st0" d="M351.7,3773.8H235.6c-1.8,0-3.2-1.4-3.2-3.2s1.4-3.2,3.2-3.2h116.2c1.8,0,3.2,1.4,3.2,3.2
	S353.5,3773.8,351.7,3773.8z"/>
<path class="st0" d="M71,3851.3c-1.8,0-3.2-1.4-3.2-3.2v-77.5c0-1.8,1.4-3.2,3.2-3.2h103.3c1.8,0,3.2,1.4,3.2,3.2s-1.4,3.2-3.2,3.2
	h-100v74.2C74.2,3849.8,72.8,3851.3,71,3851.3z"/>
<path class="st0" d="M71,4028.7c-1.8,0-3.2-1.4-3.2-3.2v-119.4c0-1.8,1.4-3.2,3.2-3.2c1.8,0,3.2,1.4,3.2,3.2v119.4
	C74.2,4027.3,72.8,4028.7,71,4028.7z"/>
<path class="st0" d="M71,4206.2c-1.8,0-3.2-1.4-3.2-3.2v-119.4c0-1.8,1.4-3.2,3.2-3.2c1.8,0,3.2,1.4,3.2,3.2V4203
	C74.2,4204.7,72.8,4206.2,71,4206.2z"/>
<path class="st0" d="M71,4383.7c-1.8,0-3.2-1.4-3.2-3.2V4261c0-1.8,1.4-3.2,3.2-3.2c1.8,0,3.2,1.4,3.2,3.2v119.4
	C74.2,4382.2,72.8,4383.7,71,4383.7z"/>
<path class="st0" d="M71,4557.9c-1.8,0-3.2-1.4-3.2-3.2v-116.2c0-1.8,1.4-3.2,3.2-3.2c1.8,0,3.2,1.4,3.2,3.2v116.2
	C74.2,4556.5,72.8,4557.9,71,4557.9z"/>
<path class="st0" d="M174.3,4696.7H71c-1.8,0-3.2-1.4-3.2-3.2V4616c0-1.8,1.4-3.2,3.2-3.2c1.8,0,3.2,1.4,3.2,3.2v74.2h100
	c1.8,0,3.2,1.4,3.2,3.2S176,4696.7,174.3,4696.7z"/>
<path class="st0" d="M351.7,4696.7H235.6c-1.8,0-3.2-1.4-3.2-3.2s1.4-3.2,3.2-3.2h116.2c1.8,0,3.2,1.4,3.2,3.2
	S353.5,4696.7,351.7,4696.7z"/>
<path class="st0" d="M516.3,4696.7H409.8c-1.8,0-3.2-1.4-3.2-3.2s1.4-3.2,3.2-3.2h103.3V4602l-62.5-25c-1.7-0.7-2.5-2.5-1.8-4.2
	c0.7-1.7,2.5-2.5,4.2-1.8l64.5,25.8c1.2,0.5,2,1.7,2,3v93.6C519.5,4695.2,518.1,4696.7,516.3,4696.7z"/>
<path class="st0" d="M396.9,4554.7c-0.4,0-0.8-0.1-1.2-0.2L286,4509.3c-1.6-0.7-2.4-2.6-1.7-4.2c0.7-1.6,2.5-2.4,4.2-1.8l109.7,45.2
	c1.6,0.7,2.4,2.6,1.7,4.2C399.4,4553.9,398.2,4554.7,396.9,4554.7z"/>
<path class="st0" d="M235.6,4486.9c-0.4,0-0.8-0.1-1.2-0.2l-64.5-25.8c-1.2-0.5-2-1.7-2-3v-106.5c0-1.8,1.4-3.2,3.2-3.2
	s3.2,1.4,3.2,3.2v104.3l62.5,25c1.7,0.7,2.5,2.5,1.8,4.2C238.1,4486.2,236.8,4486.9,235.6,4486.9z"/>
<path class="st0" d="M171,4296.5c-1.8,0-3.2-1.4-3.2-3.2v-119.4c0-1.8,1.4-3.2,3.2-3.2s3.2,1.4,3.2,3.2v119.4
	C174.3,4295.1,172.8,4296.5,171,4296.5z"/>
<path class="st0" d="M171,4119.1c-1.8,0-3.2-1.4-3.2-3.2v-109.7c0-1.3,0.8-2.5,2-3l64.5-25.8c1.7-0.6,3.5,0.2,4.2,1.8
	c0.7,1.7-0.1,3.5-1.8,4.2l-62.5,25v107.5C174.3,4117.6,172.8,4119.1,171,4119.1z"/>
<path class="st0" d="M287.2,3960.9c-1.3,0-2.5-0.8-3-2c-0.7-1.7,0.1-3.5,1.7-4.2l109.7-45.2c1.7-0.7,3.5,0.1,4.2,1.8
	c0.7,1.7-0.1,3.5-1.7,4.2l-109.7,45.2C288,3960.9,287.6,3960.9,287.2,3960.9z"/>
<path class="st0" d="M451.8,3893.2c-1.3,0-2.5-0.8-3-2c-0.7-1.7,0.1-3.5,1.8-4.2l62.5-25v-91.4c0-1.8,1.4-3.2,3.2-3.2
	c1.8,0,3.2,1.4,3.2,3.2v93.6c0,1.3-0.8,2.5-2,3L453,3893C452.6,3893.1,452.2,3893.2,451.8,3893.2z"/>
<path class="st0" d="M580.8,3702.8h-64.5c-1.8,0-3.2-1.4-3.2-3.2c0-1.8,1.4-3.2,3.2-3.2h64.5c1.8,0,3.2,1.4,3.2,3.2
	C584.1,3701.4,582.6,3702.8,580.8,3702.8z"/>
<path class="st0" d="M471.1,3702.8H384c-1.8,0-3.2-1.4-3.2-3.2c0-1.8,1.4-3.2,3.2-3.2h87.1c1.8,0,3.2,1.4,3.2,3.2
	C474.4,3701.4,472.9,3702.8,471.1,3702.8z"/>
<path class="st0" d="M338.8,3702.8h-90.3c-1.8,0-3.2-1.4-3.2-3.2c0-1.8,1.4-3.2,3.2-3.2h90.3c1.8,0,3.2,1.4,3.2,3.2
	C342.1,3701.4,340.6,3702.8,338.8,3702.8z"/>
<path class="st0" d="M206.5,3702.8h-90.3c-1.8,0-3.2-1.4-3.2-3.2c0-1.8,1.4-3.2,3.2-3.2h90.3c1.8,0,3.2,1.4,3.2,3.2
	C209.8,3701.4,208.3,3702.8,206.5,3702.8z"/>
<path class="st0" d="M3.2,3748c-1.8,0-3.2-1.4-3.2-3.2v-45.2c0-1.8,1.4-3.2,3.2-3.2H71c1.8,0,3.2,1.4,3.2,3.2c0,1.8-1.4,3.2-3.2,3.2
	H6.5v41.9C6.5,3746.5,5,3748,3.2,3748z"/>
<path class="st0" d="M3.2,3880.3c-1.8,0-3.2-1.4-3.2-3.2v-87.1c0-1.8,1.4-3.2,3.2-3.2s3.2,1.4,3.2,3.2v87.1
	C6.5,3878.8,5,3880.3,3.2,3880.3z"/>
<path class="st0" d="M3.2,4015.8c-1.8,0-3.2-1.4-3.2-3.2v-90.3c0-1.8,1.4-3.2,3.2-3.2s3.2,1.4,3.2,3.2v90.3
	C6.5,4014.4,5,4015.8,3.2,4015.8z"/>
<path class="st0" d="M3.2,4144.9c-1.8,0-3.2-1.4-3.2-3.2v-83.9c0-1.8,1.4-3.2,3.2-3.2s3.2,1.4,3.2,3.2v83.9
	C6.5,4143.4,5,4144.9,3.2,4144.9z"/>
<path class="st0" d="M3.2,4277.2c-1.8,0-3.2-1.4-3.2-3.2v-87.1c0-1.8,1.4-3.2,3.2-3.2s3.2,1.4,3.2,3.2v87.1
	C6.5,4275.7,5,4277.2,3.2,4277.2z"/>
<path class="st0" d="M3.2,4412.7c-1.8,0-3.2-1.4-3.2-3.2v-90.4c0-1.8,1.4-3.2,3.2-3.2s3.2,1.4,3.2,3.2v90.4
	C6.5,4411.3,5,4412.7,3.2,4412.7z"/>
<path class="st0" d="M3.2,4545c-1.8,0-3.2-1.4-3.2-3.2v-90.4c0-1.8,1.4-3.2,3.2-3.2s3.2,1.4,3.2,3.2v90.4
	C6.5,4543.6,5,4545,3.2,4545z"/>
<path class="st0" d="M3.2,4677.3c-1.8,0-3.2-1.4-3.2-3.2V4587c0-1.8,1.4-3.2,3.2-3.2s3.2,1.4,3.2,3.2v87.1
	C6.5,4675.9,5,4677.3,3.2,4677.3z"/>
<path class="st0" d="M71,4767.6H3.2c-1.8,0-3.2-1.4-3.2-3.2v-45.2c0-1.8,1.4-3.2,3.2-3.2s3.2,1.4,3.2,3.2v41.9H71
	c1.8,0,3.2,1.4,3.2,3.2S72.8,4767.6,71,4767.6z"/>
<path class="st0" d="M206.5,4767.6h-90.3c-1.8,0-3.2-1.4-3.2-3.2s1.4-3.2,3.2-3.2h90.3c1.8,0,3.2,1.4,3.2,3.2
	S208.3,4767.6,206.5,4767.6z"/>
<path class="st0" d="M338.8,4767.6h-90.3c-1.8,0-3.2-1.4-3.2-3.2s1.4-3.2,3.2-3.2h90.3c1.8,0,3.2,1.4,3.2,3.2
	S340.6,4767.6,338.8,4767.6z"/>
<path class="st0" d="M471.1,4767.6H384c-1.8,0-3.2-1.4-3.2-3.2s1.4-3.2,3.2-3.2h87.1c1.8,0,3.2,1.4,3.2,3.2
	S472.9,4767.6,471.1,4767.6z"/>
<path class="st0" d="M580.8,4767.6h-64.5c-1.8,0-3.2-1.4-3.2-3.2s1.4-3.2,3.2-3.2h61.3v-93.6c0-1.8,1.4-3.2,3.2-3.2
	c1.8,0,3.2,1.4,3.2,3.2v96.8C584.1,4766.2,582.6,4767.6,580.8,4767.6z"/>
<path class="st0" d="M580.8,4625.7c-1.8,0-3.2-1.4-3.2-3.2v-90.4h-61.3c-0.4,0-0.9-0.1-1.3-0.3l-58.1-25.8c-1.6-0.7-2.4-2.6-1.6-4.3
	c0.7-1.7,2.6-2.3,4.3-1.6l57.4,25.5h63.9c1.8,0,3.2,1.4,3.2,3.2v93.6C584.1,4624.2,582.6,4625.7,580.8,4625.7z"/>
<path class="st0" d="M416.3,4490.2c-0.5,0-0.9-0.1-1.4-0.3l-80.7-38.7c-1.6-0.8-2.3-2.7-1.5-4.3c0.8-1.6,2.7-2.3,4.3-1.5l80.7,38.7
	c1.6,0.8,2.3,2.7,1.5,4.3C418.6,4489.5,417.5,4490.2,416.3,4490.2z"/>
<path class="st0" d="M296.9,4435.3c-0.4,0-0.8-0.1-1.2-0.2l-58.1-22.6c-1.2-0.5-2.1-1.7-2.1-3v-90.4c0-1.8,1.4-3.2,3.2-3.2
	c1.8,0,3.2,1.4,3.2,3.2v88.2l56,21.8c1.7,0.7,2.5,2.5,1.8,4.2C299.4,4434.5,298.2,4435.3,296.9,4435.3z"/>
<path class="st0" d="M238.8,4277.2c-1.8,0-3.2-1.4-3.2-3.2v-87.1c0-1.8,1.4-3.2,3.2-3.2c1.8,0,3.2,1.4,3.2,3.2v87.1
	C242,4275.7,240.6,4277.2,238.8,4277.2z"/>
<path class="st0" d="M238.8,4144.9c-1.8,0-3.2-1.4-3.2-3.2v-83.9c0-1.3,0.7-2.4,1.9-2.9l58.1-25.8c1.7-0.7,3.5,0,4.3,1.6
	c0.7,1.6,0,3.5-1.6,4.3l-56.2,25v81.8C242,4143.4,240.6,4144.9,238.8,4144.9z"/>
<path class="st0" d="M335.6,4015.8c-1.2,0-2.4-0.7-3-1.9c-0.7-1.6,0-3.5,1.7-4.2l80.7-35.5c1.6-0.8,3.5,0,4.3,1.7
	c0.7,1.6,0,3.5-1.7,4.2l-80.7,35.5C336.5,4015.7,336,4015.8,335.6,4015.8z"/>
<path class="st0" d="M458.2,3964.2c-1.2,0-2.4-0.7-3-1.9c-0.7-1.6,0-3.5,1.6-4.3l58.1-25.8c0.4-0.2,0.9-0.3,1.3-0.3h61.3v-90.3
	c0-1.8,1.4-3.2,3.2-3.2c1.8,0,3.2,1.4,3.2,3.2v93.6c0,1.8-1.4,3.2-3.2,3.2H517l-57.4,25.5C459.1,3964.1,458.7,3964.2,458.2,3964.2z"
	/>
<path class="st0" d="M580.8,3802.8c-1.8,0-3.2-1.4-3.2-3.2v-100c0-1.8,1.4-3.2,3.2-3.2c1.8,0,3.2,1.4,3.2,3.2v100
	C584.1,3801.4,582.6,3802.8,580.8,3802.8z"/>
<path class="st0" d="M8396.2,2812.2h-784.1c-1.8,0-3.2-1.4-3.2-3.2s1.4-3.2,3.2-3.2h784.1c1.8,0,3.2,1.4,3.2,3.2
	S8398,2812.2,8396.2,2812.2z"/>
<path class="st0" d="M8396.2,2638h-784.1c-1.8,0-3.2-1.4-3.2-3.2c0-1.8,1.4-3.2,3.2-3.2h784.1c1.8,0,3.2,1.4,3.2,3.2
	C8399.5,2636.5,8398,2638,8396.2,2638z"/>
<path class="st0" d="M8396.2,2992.9h-784.1c-1.8,0-3.2-1.4-3.2-3.2s1.4-3.2,3.2-3.2H8393v-529.2c0-1.8,1.4-3.2,3.2-3.2
	c1.8,0,3.2,1.4,3.2,3.2v532.4C8399.5,2991.4,8398,2992.9,8396.2,2992.9z"/>
<path class="st0" d="M8444.6,2992.9h-48.4c-1.8,0-3.2-1.4-3.2-3.2s1.4-3.2,3.2-3.2h45.2v-529.2c0-1.8,1.4-3.2,3.2-3.2
	c1.8,0,3.2,1.4,3.2,3.2v532.4C8447.9,2991.4,8446.4,2992.9,8444.6,2992.9z"/>
<g>
	<path class="st0" d="M13379,4994.6v-133.5h26.9v101.5h82.4v-93.8h26.5v93.8h112.2v32H13379z"/>
	<path class="st0" d="M13398.9,4780.5c11-0.4,19.9,7.7,19.9,20.6c0,11.4-8.8,19.5-19.9,19.5c-11.4,0-20.2-8.5-20.2-20.2
		C13378.6,4788.2,13387.5,4780.5,13398.9,4780.5z M13626.9,4816.5h-178v-32.4h178V4816.5z"/>
	<path class="st0" d="M13504.4,4729.7c-21,0-39,0.4-55.5,1.5v-28.3l34.9-1.1v-1.5c-23.9-8.1-39-27.6-39-49.3c0-3.7,0.4-6.3,1.1-9.2
		h30.5c-0.7,3.3-1.1,6.6-1.1,11c0,22.8,17.3,39,41.6,43.4c4.4,0.7,9.6,1.5,15.1,1.5h94.9v32H13504.4z"/>
	<path class="st0" d="M13593.8,4611.7c6.3-9.6,12.9-26.5,12.9-42.7c0-23.5-11.8-34.6-26.5-34.6c-15.5,0-23.9,9.2-32.7,33.1
		c-11.4,32-29.1,47.1-50.4,47.1c-28.7,0-52.2-23.2-52.2-61.4c0-18,5.2-33.8,11-43.8l23.5,8.1c-4.4,7-10.3,19.9-10.3,36.4
		c0,19.1,11,29.8,24.3,29.8c14.7,0,21.3-10.7,30.2-33.8c11.8-30.9,27.2-46.7,53.7-46.7c31.3,0,53.3,24.3,53.3,66.6
		c0,19.5-4.8,37.5-12.1,50L13593.8,4611.7z"/>
	<path class="st0" d="M13397.8,4422.6h51.1v-46.3h24.6v46.3h96c22.1,0,34.6-6.3,34.6-24.3c0-8.5-1.1-14.7-2.2-18.8l24.3-1.5
		c2.6,6.3,4.4,16.2,4.4,28.7c0,15.1-4.8,27.2-13.6,34.9c-9.6,9.2-25.4,12.5-46.3,12.5h-97.1v27.6h-24.6v-27.6h-42.7L13397.8,4422.6z
		"/>
	<path class="st0" d="M13379,4261.8v-133.5h26.9v101.5h82.4V4136h26.5v93.8h112.2v32H13379z"/>
	<path class="st0" d="M13365.8,4083.8v-32.4h261.2v32.4H13365.8z"/>
	<path class="st0" d="M13536.4,3838.4c65.8,0,94.5,45.6,94.5,88.7c0,48.2-35.3,85.3-91.6,85.3c-59.6,0-94.5-39-94.5-88.3
		C13444.8,3873,13482,3838.4,13536.4,3838.4z M13538.3,3979.7c39,0,68.4-22.4,68.4-54.1c0-30.9-29.1-54.1-69.2-54.1
		c-30.2,0-68.4,15.1-68.4,53.3C13469.1,3963.1,13504.4,3979.7,13538.3,3979.7z"/>
	<path class="st0" d="M13536.4,3636.5c65.8,0,94.5,45.6,94.5,88.7c0,48.2-35.3,85.3-91.6,85.3c-59.6,0-94.5-39-94.5-88.3
		C13444.8,3671.1,13482,3636.5,13536.4,3636.5z M13538.3,3777.7c39,0,68.4-22.4,68.4-54.1c0-30.9-29.1-54.1-69.2-54.1
		c-30.2,0-68.4,15.1-68.4,53.3C13469.1,3761.2,13504.4,3777.7,13538.3,3777.7z"/>
	<path class="st0" d="M13504.4,3595.6c-21,0-39,0.4-55.5,1.5v-28.3l34.9-1.1v-1.5c-23.9-8.1-39-27.6-39-49.3c0-3.7,0.4-6.3,1.1-9.2
		h30.5c-0.7,3.3-1.1,6.6-1.1,11c0,22.8,17.3,39,41.6,43.4c4.4,0.7,9.6,1.5,15.1,1.5h94.9v32H13504.4z"/>
</g>
</svg>
